<?xml version="1.0" encoding="utf-8" standalone="no"?>
<!DOCTYPE svg PUBLIC "-//W3C//DTD SVG 1.1//EN"
  "http://www.w3.org/Graphics/SVG/1.1/DTD/svg11.dtd">
<svg xmlns:xlink="http://www.w3.org/1999/xlink" width="504pt" height="360pt" viewBox="0 0 504 360" xmlns="http://www.w3.org/2000/svg" version="1.1">
 <metadata>
  <rdf:RDF xmlns:dc="http://purl.org/dc/elements/1.1/" xmlns:cc="http://creativecommons.org/ns#" xmlns:rdf="http://www.w3.org/1999/02/22-rdf-syntax-ns#">
   <cc:Work>
    <dc:type rdf:resource="http://purl.org/dc/dcmitype/StillImage"/>
    <dc:date>2022-01-09T16:09:33.281668</dc:date>
    <dc:format>image/svg+xml</dc:format>
    <dc:creator>
     <cc:Agent>
      <dc:title>Matplotlib v3.5.0, https://matplotlib.org/</dc:title>
     </cc:Agent>
    </dc:creator>
   </cc:Work>
  </rdf:RDF>
 </metadata>
 <defs>
  <style type="text/css">*{stroke-linejoin: round; stroke-linecap: butt}</style>
 </defs>
 <g id="figure_1">
  <g id="patch_1">
   <path d="M 0 360 
L 504 360 
L 504 0 
L 0 0 
z
" style="fill: #ffffff"/>
  </g>
  <g id="axes_1">
   <g id="patch_2">
    <path d="M 63 320.4 
L 453.6 320.4 
L 453.6 43.2 
L 63 43.2 
z
" style="fill: #e5e5e5"/>
   </g>
   <g id="matplotlib.axis_1">
    <g id="xtick_1">
     <g id="line2d_1">
      <path d="M 80.754545 320.4 
L 80.754545 43.2 
" clip-path="url(#p9b476eb9ad)" style="fill: none; stroke: #ffffff; stroke-width: 0.8; stroke-linecap: square"/>
     </g>
     <g id="line2d_2">
      <defs>
       <path id="m16ac0bd40f" d="M 0 0 
L 0 3.5 
" style="stroke: #555555; stroke-width: 0.8"/>
      </defs>
      <g>
       <use xlink:href="#m16ac0bd40f" x="80.754545" y="320.4" style="fill: #555555; stroke: #555555; stroke-width: 0.8"/>
      </g>
     </g>
     <g id="text_1">
      <!-- $\mathdefault{10^{0}}$ -->
      <g style="fill: #555555" transform="translate(71.954545 334.998438)scale(0.1 -0.1)">
       <defs>
        <path id="DejaVuSans-31" d="M 794 531 
L 1825 531 
L 1825 4091 
L 703 3866 
L 703 4441 
L 1819 4666 
L 2450 4666 
L 2450 531 
L 3481 531 
L 3481 0 
L 794 0 
L 794 531 
z
" transform="scale(0.015625)"/>
        <path id="DejaVuSans-30" d="M 2034 4250 
Q 1547 4250 1301 3770 
Q 1056 3291 1056 2328 
Q 1056 1369 1301 889 
Q 1547 409 2034 409 
Q 2525 409 2770 889 
Q 3016 1369 3016 2328 
Q 3016 3291 2770 3770 
Q 2525 4250 2034 4250 
z
M 2034 4750 
Q 2819 4750 3233 4129 
Q 3647 3509 3647 2328 
Q 3647 1150 3233 529 
Q 2819 -91 2034 -91 
Q 1250 -91 836 529 
Q 422 1150 422 2328 
Q 422 3509 836 4129 
Q 1250 4750 2034 4750 
z
" transform="scale(0.015625)"/>
       </defs>
       <use xlink:href="#DejaVuSans-31" transform="translate(0 0.765625)"/>
       <use xlink:href="#DejaVuSans-30" transform="translate(63.623047 0.765625)"/>
       <use xlink:href="#DejaVuSans-30" transform="translate(128.203125 39.046875)scale(0.7)"/>
      </g>
     </g>
    </g>
    <g id="xtick_2">
     <g id="line2d_3">
      <path d="M 199.118182 320.4 
L 199.118182 43.2 
" clip-path="url(#p9b476eb9ad)" style="fill: none; stroke: #ffffff; stroke-width: 0.8; stroke-linecap: square"/>
     </g>
     <g id="line2d_4">
      <g>
       <use xlink:href="#m16ac0bd40f" x="199.118182" y="320.4" style="fill: #555555; stroke: #555555; stroke-width: 0.8"/>
      </g>
     </g>
     <g id="text_2">
      <!-- $\mathdefault{10^{1}}$ -->
      <g style="fill: #555555" transform="translate(190.318182 334.998438)scale(0.1 -0.1)">
       <use xlink:href="#DejaVuSans-31" transform="translate(0 0.684375)"/>
       <use xlink:href="#DejaVuSans-30" transform="translate(63.623047 0.684375)"/>
       <use xlink:href="#DejaVuSans-31" transform="translate(128.203125 38.965625)scale(0.7)"/>
      </g>
     </g>
    </g>
    <g id="xtick_3">
     <g id="line2d_5">
      <path d="M 317.481818 320.4 
L 317.481818 43.2 
" clip-path="url(#p9b476eb9ad)" style="fill: none; stroke: #ffffff; stroke-width: 0.8; stroke-linecap: square"/>
     </g>
     <g id="line2d_6">
      <g>
       <use xlink:href="#m16ac0bd40f" x="317.481818" y="320.4" style="fill: #555555; stroke: #555555; stroke-width: 0.8"/>
      </g>
     </g>
     <g id="text_3">
      <!-- $\mathdefault{10^{2}}$ -->
      <g style="fill: #555555" transform="translate(308.681818 334.998438)scale(0.1 -0.1)">
       <defs>
        <path id="DejaVuSans-32" d="M 1228 531 
L 3431 531 
L 3431 0 
L 469 0 
L 469 531 
Q 828 903 1448 1529 
Q 2069 2156 2228 2338 
Q 2531 2678 2651 2914 
Q 2772 3150 2772 3378 
Q 2772 3750 2511 3984 
Q 2250 4219 1831 4219 
Q 1534 4219 1204 4116 
Q 875 4013 500 3803 
L 500 4441 
Q 881 4594 1212 4672 
Q 1544 4750 1819 4750 
Q 2544 4750 2975 4387 
Q 3406 4025 3406 3419 
Q 3406 3131 3298 2873 
Q 3191 2616 2906 2266 
Q 2828 2175 2409 1742 
Q 1991 1309 1228 531 
z
" transform="scale(0.015625)"/>
       </defs>
       <use xlink:href="#DejaVuSans-31" transform="translate(0 0.765625)"/>
       <use xlink:href="#DejaVuSans-30" transform="translate(63.623047 0.765625)"/>
       <use xlink:href="#DejaVuSans-32" transform="translate(128.203125 39.046875)scale(0.7)"/>
      </g>
     </g>
    </g>
    <g id="xtick_4">
     <g id="line2d_7">
      <path d="M 435.845455 320.4 
L 435.845455 43.2 
" clip-path="url(#p9b476eb9ad)" style="fill: none; stroke: #ffffff; stroke-width: 0.8; stroke-linecap: square"/>
     </g>
     <g id="line2d_8">
      <g>
       <use xlink:href="#m16ac0bd40f" x="435.845455" y="320.4" style="fill: #555555; stroke: #555555; stroke-width: 0.8"/>
      </g>
     </g>
     <g id="text_4">
      <!-- $\mathdefault{10^{3}}$ -->
      <g style="fill: #555555" transform="translate(427.045455 334.998438)scale(0.1 -0.1)">
       <defs>
        <path id="DejaVuSans-33" d="M 2597 2516 
Q 3050 2419 3304 2112 
Q 3559 1806 3559 1356 
Q 3559 666 3084 287 
Q 2609 -91 1734 -91 
Q 1441 -91 1130 -33 
Q 819 25 488 141 
L 488 750 
Q 750 597 1062 519 
Q 1375 441 1716 441 
Q 2309 441 2620 675 
Q 2931 909 2931 1356 
Q 2931 1769 2642 2001 
Q 2353 2234 1838 2234 
L 1294 2234 
L 1294 2753 
L 1863 2753 
Q 2328 2753 2575 2939 
Q 2822 3125 2822 3475 
Q 2822 3834 2567 4026 
Q 2313 4219 1838 4219 
Q 1578 4219 1281 4162 
Q 984 4106 628 3988 
L 628 4550 
Q 988 4650 1302 4700 
Q 1616 4750 1894 4750 
Q 2613 4750 3031 4423 
Q 3450 4097 3450 3541 
Q 3450 3153 3228 2886 
Q 3006 2619 2597 2516 
z
" transform="scale(0.015625)"/>
       </defs>
       <use xlink:href="#DejaVuSans-31" transform="translate(0 0.765625)"/>
       <use xlink:href="#DejaVuSans-30" transform="translate(63.623047 0.765625)"/>
       <use xlink:href="#DejaVuSans-33" transform="translate(128.203125 39.046875)scale(0.7)"/>
      </g>
     </g>
    </g>
    <g id="xtick_5">
     <g id="line2d_9">
      <path d="M 69.283924 320.4 
L 69.283924 43.2 
" clip-path="url(#p9b476eb9ad)" style="fill: none; stroke: #ffffff; stroke-width: 0.8; stroke-linecap: square"/>
     </g>
     <g id="line2d_10">
      <defs>
       <path id="m711a0fcd67" d="M 0 0 
L 0 2 
" style="stroke: #555555; stroke-width: 0.6"/>
      </defs>
      <g>
       <use xlink:href="#m711a0fcd67" x="69.283924" y="320.4" style="fill: #555555; stroke: #555555; stroke-width: 0.6"/>
      </g>
     </g>
    </g>
    <g id="xtick_6">
     <g id="line2d_11">
      <path d="M 75.338522 320.4 
L 75.338522 43.2 
" clip-path="url(#p9b476eb9ad)" style="fill: none; stroke: #ffffff; stroke-width: 0.8; stroke-linecap: square"/>
     </g>
     <g id="line2d_12">
      <g>
       <use xlink:href="#m711a0fcd67" x="75.338522" y="320.4" style="fill: #555555; stroke: #555555; stroke-width: 0.6"/>
      </g>
     </g>
    </g>
    <g id="xtick_7">
     <g id="line2d_13">
      <path d="M 116.38555 320.4 
L 116.38555 43.2 
" clip-path="url(#p9b476eb9ad)" style="fill: none; stroke: #ffffff; stroke-width: 0.8; stroke-linecap: square"/>
     </g>
     <g id="line2d_14">
      <g>
       <use xlink:href="#m711a0fcd67" x="116.38555" y="320.4" style="fill: #555555; stroke: #555555; stroke-width: 0.6"/>
      </g>
     </g>
    </g>
    <g id="xtick_8">
     <g id="line2d_15">
      <path d="M 137.228352 320.4 
L 137.228352 43.2 
" clip-path="url(#p9b476eb9ad)" style="fill: none; stroke: #ffffff; stroke-width: 0.8; stroke-linecap: square"/>
     </g>
     <g id="line2d_16">
      <g>
       <use xlink:href="#m711a0fcd67" x="137.228352" y="320.4" style="fill: #555555; stroke: #555555; stroke-width: 0.6"/>
      </g>
     </g>
    </g>
    <g id="xtick_9">
     <g id="line2d_17">
      <path d="M 152.016555 320.4 
L 152.016555 43.2 
" clip-path="url(#p9b476eb9ad)" style="fill: none; stroke: #ffffff; stroke-width: 0.8; stroke-linecap: square"/>
     </g>
     <g id="line2d_18">
      <g>
       <use xlink:href="#m711a0fcd67" x="152.016555" y="320.4" style="fill: #555555; stroke: #555555; stroke-width: 0.6"/>
      </g>
     </g>
    </g>
    <g id="xtick_10">
     <g id="line2d_19">
      <path d="M 163.487177 320.4 
L 163.487177 43.2 
" clip-path="url(#p9b476eb9ad)" style="fill: none; stroke: #ffffff; stroke-width: 0.8; stroke-linecap: square"/>
     </g>
     <g id="line2d_20">
      <g>
       <use xlink:href="#m711a0fcd67" x="163.487177" y="320.4" style="fill: #555555; stroke: #555555; stroke-width: 0.6"/>
      </g>
     </g>
    </g>
    <g id="xtick_11">
     <g id="line2d_21">
      <path d="M 172.859357 320.4 
L 172.859357 43.2 
" clip-path="url(#p9b476eb9ad)" style="fill: none; stroke: #ffffff; stroke-width: 0.8; stroke-linecap: square"/>
     </g>
     <g id="line2d_22">
      <g>
       <use xlink:href="#m711a0fcd67" x="172.859357" y="320.4" style="fill: #555555; stroke: #555555; stroke-width: 0.6"/>
      </g>
     </g>
    </g>
    <g id="xtick_12">
     <g id="line2d_23">
      <path d="M 180.783423 320.4 
L 180.783423 43.2 
" clip-path="url(#p9b476eb9ad)" style="fill: none; stroke: #ffffff; stroke-width: 0.8; stroke-linecap: square"/>
     </g>
     <g id="line2d_24">
      <g>
       <use xlink:href="#m711a0fcd67" x="180.783423" y="320.4" style="fill: #555555; stroke: #555555; stroke-width: 0.6"/>
      </g>
     </g>
    </g>
    <g id="xtick_13">
     <g id="line2d_25">
      <path d="M 187.64756 320.4 
L 187.64756 43.2 
" clip-path="url(#p9b476eb9ad)" style="fill: none; stroke: #ffffff; stroke-width: 0.8; stroke-linecap: square"/>
     </g>
     <g id="line2d_26">
      <g>
       <use xlink:href="#m711a0fcd67" x="187.64756" y="320.4" style="fill: #555555; stroke: #555555; stroke-width: 0.6"/>
      </g>
     </g>
    </g>
    <g id="xtick_14">
     <g id="line2d_27">
      <path d="M 193.702159 320.4 
L 193.702159 43.2 
" clip-path="url(#p9b476eb9ad)" style="fill: none; stroke: #ffffff; stroke-width: 0.8; stroke-linecap: square"/>
     </g>
     <g id="line2d_28">
      <g>
       <use xlink:href="#m711a0fcd67" x="193.702159" y="320.4" style="fill: #555555; stroke: #555555; stroke-width: 0.6"/>
      </g>
     </g>
    </g>
    <g id="xtick_15">
     <g id="line2d_29">
      <path d="M 234.749187 320.4 
L 234.749187 43.2 
" clip-path="url(#p9b476eb9ad)" style="fill: none; stroke: #ffffff; stroke-width: 0.8; stroke-linecap: square"/>
     </g>
     <g id="line2d_30">
      <g>
       <use xlink:href="#m711a0fcd67" x="234.749187" y="320.4" style="fill: #555555; stroke: #555555; stroke-width: 0.6"/>
      </g>
     </g>
    </g>
    <g id="xtick_16">
     <g id="line2d_31">
      <path d="M 255.591989 320.4 
L 255.591989 43.2 
" clip-path="url(#p9b476eb9ad)" style="fill: none; stroke: #ffffff; stroke-width: 0.8; stroke-linecap: square"/>
     </g>
     <g id="line2d_32">
      <g>
       <use xlink:href="#m711a0fcd67" x="255.591989" y="320.4" style="fill: #555555; stroke: #555555; stroke-width: 0.6"/>
      </g>
     </g>
    </g>
    <g id="xtick_17">
     <g id="line2d_33">
      <path d="M 270.380192 320.4 
L 270.380192 43.2 
" clip-path="url(#p9b476eb9ad)" style="fill: none; stroke: #ffffff; stroke-width: 0.8; stroke-linecap: square"/>
     </g>
     <g id="line2d_34">
      <g>
       <use xlink:href="#m711a0fcd67" x="270.380192" y="320.4" style="fill: #555555; stroke: #555555; stroke-width: 0.6"/>
      </g>
     </g>
    </g>
    <g id="xtick_18">
     <g id="line2d_35">
      <path d="M 281.850813 320.4 
L 281.850813 43.2 
" clip-path="url(#p9b476eb9ad)" style="fill: none; stroke: #ffffff; stroke-width: 0.8; stroke-linecap: square"/>
     </g>
     <g id="line2d_36">
      <g>
       <use xlink:href="#m711a0fcd67" x="281.850813" y="320.4" style="fill: #555555; stroke: #555555; stroke-width: 0.6"/>
      </g>
     </g>
    </g>
    <g id="xtick_19">
     <g id="line2d_37">
      <path d="M 291.222993 320.4 
L 291.222993 43.2 
" clip-path="url(#p9b476eb9ad)" style="fill: none; stroke: #ffffff; stroke-width: 0.8; stroke-linecap: square"/>
     </g>
     <g id="line2d_38">
      <g>
       <use xlink:href="#m711a0fcd67" x="291.222993" y="320.4" style="fill: #555555; stroke: #555555; stroke-width: 0.6"/>
      </g>
     </g>
    </g>
    <g id="xtick_20">
     <g id="line2d_39">
      <path d="M 299.147059 320.4 
L 299.147059 43.2 
" clip-path="url(#p9b476eb9ad)" style="fill: none; stroke: #ffffff; stroke-width: 0.8; stroke-linecap: square"/>
     </g>
     <g id="line2d_40">
      <g>
       <use xlink:href="#m711a0fcd67" x="299.147059" y="320.4" style="fill: #555555; stroke: #555555; stroke-width: 0.6"/>
      </g>
     </g>
    </g>
    <g id="xtick_21">
     <g id="line2d_41">
      <path d="M 306.011197 320.4 
L 306.011197 43.2 
" clip-path="url(#p9b476eb9ad)" style="fill: none; stroke: #ffffff; stroke-width: 0.8; stroke-linecap: square"/>
     </g>
     <g id="line2d_42">
      <g>
       <use xlink:href="#m711a0fcd67" x="306.011197" y="320.4" style="fill: #555555; stroke: #555555; stroke-width: 0.6"/>
      </g>
     </g>
    </g>
    <g id="xtick_22">
     <g id="line2d_43">
      <path d="M 312.065795 320.4 
L 312.065795 43.2 
" clip-path="url(#p9b476eb9ad)" style="fill: none; stroke: #ffffff; stroke-width: 0.8; stroke-linecap: square"/>
     </g>
     <g id="line2d_44">
      <g>
       <use xlink:href="#m711a0fcd67" x="312.065795" y="320.4" style="fill: #555555; stroke: #555555; stroke-width: 0.6"/>
      </g>
     </g>
    </g>
    <g id="xtick_23">
     <g id="line2d_45">
      <path d="M 353.112823 320.4 
L 353.112823 43.2 
" clip-path="url(#p9b476eb9ad)" style="fill: none; stroke: #ffffff; stroke-width: 0.8; stroke-linecap: square"/>
     </g>
     <g id="line2d_46">
      <g>
       <use xlink:href="#m711a0fcd67" x="353.112823" y="320.4" style="fill: #555555; stroke: #555555; stroke-width: 0.6"/>
      </g>
     </g>
    </g>
    <g id="xtick_24">
     <g id="line2d_47">
      <path d="M 373.955625 320.4 
L 373.955625 43.2 
" clip-path="url(#p9b476eb9ad)" style="fill: none; stroke: #ffffff; stroke-width: 0.8; stroke-linecap: square"/>
     </g>
     <g id="line2d_48">
      <g>
       <use xlink:href="#m711a0fcd67" x="373.955625" y="320.4" style="fill: #555555; stroke: #555555; stroke-width: 0.6"/>
      </g>
     </g>
    </g>
    <g id="xtick_25">
     <g id="line2d_49">
      <path d="M 388.743828 320.4 
L 388.743828 43.2 
" clip-path="url(#p9b476eb9ad)" style="fill: none; stroke: #ffffff; stroke-width: 0.8; stroke-linecap: square"/>
     </g>
     <g id="line2d_50">
      <g>
       <use xlink:href="#m711a0fcd67" x="388.743828" y="320.4" style="fill: #555555; stroke: #555555; stroke-width: 0.6"/>
      </g>
     </g>
    </g>
    <g id="xtick_26">
     <g id="line2d_51">
      <path d="M 400.21445 320.4 
L 400.21445 43.2 
" clip-path="url(#p9b476eb9ad)" style="fill: none; stroke: #ffffff; stroke-width: 0.8; stroke-linecap: square"/>
     </g>
     <g id="line2d_52">
      <g>
       <use xlink:href="#m711a0fcd67" x="400.21445" y="320.4" style="fill: #555555; stroke: #555555; stroke-width: 0.6"/>
      </g>
     </g>
    </g>
    <g id="xtick_27">
     <g id="line2d_53">
      <path d="M 409.58663 320.4 
L 409.58663 43.2 
" clip-path="url(#p9b476eb9ad)" style="fill: none; stroke: #ffffff; stroke-width: 0.8; stroke-linecap: square"/>
     </g>
     <g id="line2d_54">
      <g>
       <use xlink:href="#m711a0fcd67" x="409.58663" y="320.4" style="fill: #555555; stroke: #555555; stroke-width: 0.6"/>
      </g>
     </g>
    </g>
    <g id="xtick_28">
     <g id="line2d_55">
      <path d="M 417.510695 320.4 
L 417.510695 43.2 
" clip-path="url(#p9b476eb9ad)" style="fill: none; stroke: #ffffff; stroke-width: 0.8; stroke-linecap: square"/>
     </g>
     <g id="line2d_56">
      <g>
       <use xlink:href="#m711a0fcd67" x="417.510695" y="320.4" style="fill: #555555; stroke: #555555; stroke-width: 0.6"/>
      </g>
     </g>
    </g>
    <g id="xtick_29">
     <g id="line2d_57">
      <path d="M 424.374833 320.4 
L 424.374833 43.2 
" clip-path="url(#p9b476eb9ad)" style="fill: none; stroke: #ffffff; stroke-width: 0.8; stroke-linecap: square"/>
     </g>
     <g id="line2d_58">
      <g>
       <use xlink:href="#m711a0fcd67" x="424.374833" y="320.4" style="fill: #555555; stroke: #555555; stroke-width: 0.6"/>
      </g>
     </g>
    </g>
    <g id="xtick_30">
     <g id="line2d_59">
      <path d="M 430.429432 320.4 
L 430.429432 43.2 
" clip-path="url(#p9b476eb9ad)" style="fill: none; stroke: #ffffff; stroke-width: 0.8; stroke-linecap: square"/>
     </g>
     <g id="line2d_60">
      <g>
       <use xlink:href="#m711a0fcd67" x="430.429432" y="320.4" style="fill: #555555; stroke: #555555; stroke-width: 0.6"/>
      </g>
     </g>
    </g>
    <g id="text_5">
     <!-- ${CN_{ED}}$ -->
     <g style="fill: #555555" transform="translate(238.62 353.235625)scale(0.16 -0.16)">
      <defs>
       <path id="DejaVuSans-Oblique-43" d="M 4447 4306 
L 4319 3641 
Q 4019 3944 3683 4091 
Q 3347 4238 2956 4238 
Q 2422 4238 2017 3981 
Q 1613 3725 1319 3200 
Q 1131 2863 1032 2486 
Q 934 2109 934 1728 
Q 934 1091 1264 756 
Q 1594 422 2222 422 
Q 2656 422 3056 561 
Q 3456 700 3834 978 
L 3688 231 
Q 3316 72 2936 -9 
Q 2556 -91 2175 -91 
Q 1278 -91 773 396 
Q 269 884 269 1753 
Q 269 2309 461 2846 
Q 653 3384 1013 3828 
Q 1394 4300 1883 4525 
Q 2372 4750 3022 4750 
Q 3422 4750 3780 4639 
Q 4138 4528 4447 4306 
z
" transform="scale(0.015625)"/>
       <path id="DejaVuSans-Oblique-4e" d="M 1081 4666 
L 1931 4666 
L 3219 666 
L 4000 4666 
L 4616 4666 
L 3706 0 
L 2853 0 
L 1569 4025 
L 788 0 
L 172 0 
L 1081 4666 
z
" transform="scale(0.015625)"/>
       <path id="DejaVuSans-Oblique-45" d="M 1081 4666 
L 4031 4666 
L 3928 4134 
L 1606 4134 
L 1338 2753 
L 3566 2753 
L 3463 2222 
L 1234 2222 
L 909 531 
L 3284 531 
L 3181 0 
L 172 0 
L 1081 4666 
z
" transform="scale(0.015625)"/>
       <path id="DejaVuSans-Oblique-44" d="M 1081 4666 
L 2438 4666 
Q 3519 4666 4070 4208 
Q 4622 3750 4622 2847 
Q 4622 2250 4412 1698 
Q 4203 1147 3834 769 
Q 3463 381 2891 190 
Q 2319 0 1538 0 
L 172 0 
L 1081 4666 
z
M 1613 4147 
L 909 519 
L 1734 519 
Q 2794 519 3375 1128 
Q 3956 1738 3956 2847 
Q 3956 3519 3581 3833 
Q 3206 4147 2406 4147 
L 1613 4147 
z
" transform="scale(0.015625)"/>
      </defs>
      <use xlink:href="#DejaVuSans-Oblique-43" transform="translate(0 0.78125)"/>
      <use xlink:href="#DejaVuSans-Oblique-4e" transform="translate(69.824219 0.78125)"/>
      <use xlink:href="#DejaVuSans-Oblique-45" transform="translate(144.628906 -15.625)scale(0.7)"/>
      <use xlink:href="#DejaVuSans-Oblique-44" transform="translate(188.857422 -15.625)scale(0.7)"/>
     </g>
    </g>
   </g>
   <g id="matplotlib.axis_2">
    <g id="ytick_1">
     <g id="line2d_61">
      <path d="M 63 284.135581 
L 453.6 284.135581 
" clip-path="url(#p9b476eb9ad)" style="fill: none; stroke: #ffffff; stroke-width: 0.8; stroke-linecap: square"/>
     </g>
     <g id="line2d_62">
      <defs>
       <path id="md694b4cd0c" d="M 0 0 
L -3.5 0 
" style="stroke: #555555; stroke-width: 0.8"/>
      </defs>
      <g>
       <use xlink:href="#md694b4cd0c" x="63" y="284.135581" style="fill: #555555; stroke: #555555; stroke-width: 0.8"/>
      </g>
     </g>
     <g id="text_6">
      <!-- $\mathdefault{10^{-2}}$ -->
      <g style="fill: #555555" transform="translate(32.5 287.9348)scale(0.1 -0.1)">
       <defs>
        <path id="DejaVuSans-2212" d="M 678 2272 
L 4684 2272 
L 4684 1741 
L 678 1741 
L 678 2272 
z
" transform="scale(0.015625)"/>
       </defs>
       <use xlink:href="#DejaVuSans-31" transform="translate(0 0.765625)"/>
       <use xlink:href="#DejaVuSans-30" transform="translate(63.623047 0.765625)"/>
       <use xlink:href="#DejaVuSans-2212" transform="translate(128.203125 39.046875)scale(0.7)"/>
       <use xlink:href="#DejaVuSans-32" transform="translate(186.855469 39.046875)scale(0.7)"/>
      </g>
     </g>
    </g>
    <g id="ytick_2">
     <g id="line2d_63">
      <path d="M 63 163.667791 
L 453.6 163.667791 
" clip-path="url(#p9b476eb9ad)" style="fill: none; stroke: #ffffff; stroke-width: 0.8; stroke-linecap: square"/>
     </g>
     <g id="line2d_64">
      <g>
       <use xlink:href="#md694b4cd0c" x="63" y="163.667791" style="fill: #555555; stroke: #555555; stroke-width: 0.8"/>
      </g>
     </g>
     <g id="text_7">
      <!-- $\mathdefault{10^{-1}}$ -->
      <g style="fill: #555555" transform="translate(32.5 167.467009)scale(0.1 -0.1)">
       <use xlink:href="#DejaVuSans-31" transform="translate(0 0.684375)"/>
       <use xlink:href="#DejaVuSans-30" transform="translate(63.623047 0.684375)"/>
       <use xlink:href="#DejaVuSans-2212" transform="translate(128.203125 38.965625)scale(0.7)"/>
       <use xlink:href="#DejaVuSans-31" transform="translate(186.855469 38.965625)scale(0.7)"/>
      </g>
     </g>
    </g>
    <g id="ytick_3">
     <g id="line2d_65">
      <path d="M 63 43.2 
L 453.6 43.2 
" clip-path="url(#p9b476eb9ad)" style="fill: none; stroke: #ffffff; stroke-width: 0.8; stroke-linecap: square"/>
     </g>
     <g id="line2d_66">
      <g>
       <use xlink:href="#md694b4cd0c" x="63" y="43.2" style="fill: #555555; stroke: #555555; stroke-width: 0.8"/>
      </g>
     </g>
     <g id="text_8">
      <!-- $\mathdefault{10^{0}}$ -->
      <g style="fill: #555555" transform="translate(38.4 46.999219)scale(0.1 -0.1)">
       <use xlink:href="#DejaVuSans-31" transform="translate(0 0.765625)"/>
       <use xlink:href="#DejaVuSans-30" transform="translate(63.623047 0.765625)"/>
       <use xlink:href="#DejaVuSans-30" transform="translate(128.203125 39.046875)scale(0.7)"/>
      </g>
     </g>
    </g>
    <g id="ytick_4">
     <g id="line2d_67">
      <path d="M 63 320.4 
L 453.6 320.4 
" clip-path="url(#p9b476eb9ad)" style="fill: none; stroke: #ffffff; stroke-width: 0.8; stroke-linecap: square"/>
     </g>
     <g id="line2d_68">
      <defs>
       <path id="m3682e8f411" d="M 0 0 
L -2 0 
" style="stroke: #555555; stroke-width: 0.6"/>
      </defs>
      <g>
       <use xlink:href="#m3682e8f411" x="63" y="320.4" style="fill: #555555; stroke: #555555; stroke-width: 0.6"/>
      </g>
     </g>
    </g>
    <g id="ytick_5">
     <g id="line2d_69">
      <path d="M 63 310.86121 
L 453.6 310.86121 
" clip-path="url(#p9b476eb9ad)" style="fill: none; stroke: #ffffff; stroke-width: 0.8; stroke-linecap: square"/>
     </g>
     <g id="line2d_70">
      <g>
       <use xlink:href="#m3682e8f411" x="63" y="310.86121" style="fill: #555555; stroke: #555555; stroke-width: 0.6"/>
      </g>
     </g>
    </g>
    <g id="ytick_6">
     <g id="line2d_71">
      <path d="M 63 302.796278 
L 453.6 302.796278 
" clip-path="url(#p9b476eb9ad)" style="fill: none; stroke: #ffffff; stroke-width: 0.8; stroke-linecap: square"/>
     </g>
     <g id="line2d_72">
      <g>
       <use xlink:href="#m3682e8f411" x="63" y="302.796278" style="fill: #555555; stroke: #555555; stroke-width: 0.6"/>
      </g>
     </g>
    </g>
    <g id="ytick_7">
     <g id="line2d_73">
      <path d="M 63 295.810117 
L 453.6 295.810117 
" clip-path="url(#p9b476eb9ad)" style="fill: none; stroke: #ffffff; stroke-width: 0.8; stroke-linecap: square"/>
     </g>
     <g id="line2d_74">
      <g>
       <use xlink:href="#m3682e8f411" x="63" y="295.810117" style="fill: #555555; stroke: #555555; stroke-width: 0.6"/>
      </g>
     </g>
    </g>
    <g id="ytick_8">
     <g id="line2d_75">
      <path d="M 63 289.647885 
L 453.6 289.647885 
" clip-path="url(#p9b476eb9ad)" style="fill: none; stroke: #ffffff; stroke-width: 0.8; stroke-linecap: square"/>
     </g>
     <g id="line2d_76">
      <g>
       <use xlink:href="#m3682e8f411" x="63" y="289.647885" style="fill: #555555; stroke: #555555; stroke-width: 0.6"/>
      </g>
     </g>
    </g>
    <g id="ytick_9">
     <g id="line2d_77">
      <path d="M 63 247.871163 
L 453.6 247.871163 
" clip-path="url(#p9b476eb9ad)" style="fill: none; stroke: #ffffff; stroke-width: 0.8; stroke-linecap: square"/>
     </g>
     <g id="line2d_78">
      <g>
       <use xlink:href="#m3682e8f411" x="63" y="247.871163" style="fill: #555555; stroke: #555555; stroke-width: 0.6"/>
      </g>
     </g>
    </g>
    <g id="ytick_10">
     <g id="line2d_79">
      <path d="M 63 226.657838 
L 453.6 226.657838 
" clip-path="url(#p9b476eb9ad)" style="fill: none; stroke: #ffffff; stroke-width: 0.8; stroke-linecap: square"/>
     </g>
     <g id="line2d_80">
      <g>
       <use xlink:href="#m3682e8f411" x="63" y="226.657838" style="fill: #555555; stroke: #555555; stroke-width: 0.6"/>
      </g>
     </g>
    </g>
    <g id="ytick_11">
     <g id="line2d_81">
      <path d="M 63 211.606744 
L 453.6 211.606744 
" clip-path="url(#p9b476eb9ad)" style="fill: none; stroke: #ffffff; stroke-width: 0.8; stroke-linecap: square"/>
     </g>
     <g id="line2d_82">
      <g>
       <use xlink:href="#m3682e8f411" x="63" y="211.606744" style="fill: #555555; stroke: #555555; stroke-width: 0.6"/>
      </g>
     </g>
    </g>
    <g id="ytick_12">
     <g id="line2d_83">
      <path d="M 63 199.932209 
L 453.6 199.932209 
" clip-path="url(#p9b476eb9ad)" style="fill: none; stroke: #ffffff; stroke-width: 0.8; stroke-linecap: square"/>
     </g>
     <g id="line2d_84">
      <g>
       <use xlink:href="#m3682e8f411" x="63" y="199.932209" style="fill: #555555; stroke: #555555; stroke-width: 0.6"/>
      </g>
     </g>
    </g>
    <g id="ytick_13">
     <g id="line2d_85">
      <path d="M 63 190.393419 
L 453.6 190.393419 
" clip-path="url(#p9b476eb9ad)" style="fill: none; stroke: #ffffff; stroke-width: 0.8; stroke-linecap: square"/>
     </g>
     <g id="line2d_86">
      <g>
       <use xlink:href="#m3682e8f411" x="63" y="190.393419" style="fill: #555555; stroke: #555555; stroke-width: 0.6"/>
      </g>
     </g>
    </g>
    <g id="ytick_14">
     <g id="line2d_87">
      <path d="M 63 182.328488 
L 453.6 182.328488 
" clip-path="url(#p9b476eb9ad)" style="fill: none; stroke: #ffffff; stroke-width: 0.8; stroke-linecap: square"/>
     </g>
     <g id="line2d_88">
      <g>
       <use xlink:href="#m3682e8f411" x="63" y="182.328488" style="fill: #555555; stroke: #555555; stroke-width: 0.6"/>
      </g>
     </g>
    </g>
    <g id="ytick_15">
     <g id="line2d_89">
      <path d="M 63 175.342326 
L 453.6 175.342326 
" clip-path="url(#p9b476eb9ad)" style="fill: none; stroke: #ffffff; stroke-width: 0.8; stroke-linecap: square"/>
     </g>
     <g id="line2d_90">
      <g>
       <use xlink:href="#m3682e8f411" x="63" y="175.342326" style="fill: #555555; stroke: #555555; stroke-width: 0.6"/>
      </g>
     </g>
    </g>
    <g id="ytick_16">
     <g id="line2d_91">
      <path d="M 63 169.180095 
L 453.6 169.180095 
" clip-path="url(#p9b476eb9ad)" style="fill: none; stroke: #ffffff; stroke-width: 0.8; stroke-linecap: square"/>
     </g>
     <g id="line2d_92">
      <g>
       <use xlink:href="#m3682e8f411" x="63" y="169.180095" style="fill: #555555; stroke: #555555; stroke-width: 0.6"/>
      </g>
     </g>
    </g>
    <g id="ytick_17">
     <g id="line2d_93">
      <path d="M 63 127.403372 
L 453.6 127.403372 
" clip-path="url(#p9b476eb9ad)" style="fill: none; stroke: #ffffff; stroke-width: 0.8; stroke-linecap: square"/>
     </g>
     <g id="line2d_94">
      <g>
       <use xlink:href="#m3682e8f411" x="63" y="127.403372" style="fill: #555555; stroke: #555555; stroke-width: 0.6"/>
      </g>
     </g>
    </g>
    <g id="ytick_18">
     <g id="line2d_95">
      <path d="M 63 106.190047 
L 453.6 106.190047 
" clip-path="url(#p9b476eb9ad)" style="fill: none; stroke: #ffffff; stroke-width: 0.8; stroke-linecap: square"/>
     </g>
     <g id="line2d_96">
      <g>
       <use xlink:href="#m3682e8f411" x="63" y="106.190047" style="fill: #555555; stroke: #555555; stroke-width: 0.6"/>
      </g>
     </g>
    </g>
    <g id="ytick_19">
     <g id="line2d_97">
      <path d="M 63 91.138954 
L 453.6 91.138954 
" clip-path="url(#p9b476eb9ad)" style="fill: none; stroke: #ffffff; stroke-width: 0.8; stroke-linecap: square"/>
     </g>
     <g id="line2d_98">
      <g>
       <use xlink:href="#m3682e8f411" x="63" y="91.138954" style="fill: #555555; stroke: #555555; stroke-width: 0.6"/>
      </g>
     </g>
    </g>
    <g id="ytick_20">
     <g id="line2d_99">
      <path d="M 63 79.464419 
L 453.6 79.464419 
" clip-path="url(#p9b476eb9ad)" style="fill: none; stroke: #ffffff; stroke-width: 0.8; stroke-linecap: square"/>
     </g>
     <g id="line2d_100">
      <g>
       <use xlink:href="#m3682e8f411" x="63" y="79.464419" style="fill: #555555; stroke: #555555; stroke-width: 0.6"/>
      </g>
     </g>
    </g>
    <g id="ytick_21">
     <g id="line2d_101">
      <path d="M 63 69.925629 
L 453.6 69.925629 
" clip-path="url(#p9b476eb9ad)" style="fill: none; stroke: #ffffff; stroke-width: 0.8; stroke-linecap: square"/>
     </g>
     <g id="line2d_102">
      <g>
       <use xlink:href="#m3682e8f411" x="63" y="69.925629" style="fill: #555555; stroke: #555555; stroke-width: 0.6"/>
      </g>
     </g>
    </g>
    <g id="ytick_22">
     <g id="line2d_103">
      <path d="M 63 61.860697 
L 453.6 61.860697 
" clip-path="url(#p9b476eb9ad)" style="fill: none; stroke: #ffffff; stroke-width: 0.8; stroke-linecap: square"/>
     </g>
     <g id="line2d_104">
      <g>
       <use xlink:href="#m3682e8f411" x="63" y="61.860697" style="fill: #555555; stroke: #555555; stroke-width: 0.6"/>
      </g>
     </g>
    </g>
    <g id="ytick_23">
     <g id="line2d_105">
      <path d="M 63 54.874535 
L 453.6 54.874535 
" clip-path="url(#p9b476eb9ad)" style="fill: none; stroke: #ffffff; stroke-width: 0.8; stroke-linecap: square"/>
     </g>
     <g id="line2d_106">
      <g>
       <use xlink:href="#m3682e8f411" x="63" y="54.874535" style="fill: #555555; stroke: #555555; stroke-width: 0.6"/>
      </g>
     </g>
    </g>
    <g id="ytick_24">
     <g id="line2d_107">
      <path d="M 63 48.712304 
L 453.6 48.712304 
" clip-path="url(#p9b476eb9ad)" style="fill: none; stroke: #ffffff; stroke-width: 0.8; stroke-linecap: square"/>
     </g>
     <g id="line2d_108">
      <g>
       <use xlink:href="#m3682e8f411" x="63" y="48.712304" style="fill: #555555; stroke: #555555; stroke-width: 0.6"/>
      </g>
     </g>
    </g>
    <g id="text_9">
     <!-- ${G_{norm}}$ -->
     <g style="fill: #555555" transform="translate(25.1725 203)rotate(-90)scale(0.16 -0.16)">
      <defs>
       <path id="DejaVuSans-Oblique-47" d="M 3494 697 
L 3738 1919 
L 2700 1919 
L 2797 2438 
L 4453 2438 
L 4050 384 
Q 3634 156 3143 32 
Q 2653 -91 2156 -91 
Q 1278 -91 783 396 
Q 288 884 288 1753 
Q 288 2475 589 3126 
Q 891 3778 1422 4213 
Q 1756 4484 2153 4617 
Q 2550 4750 3034 4750 
Q 3472 4750 3873 4639 
Q 4275 4528 4641 4306 
L 4513 3634 
Q 4231 3928 3853 4083 
Q 3475 4238 3047 4238 
Q 2550 4238 2172 4048 
Q 1794 3859 1497 3463 
Q 1244 3125 1098 2667 
Q 953 2209 953 1734 
Q 953 1081 1287 751 
Q 1622 422 2284 422 
Q 2616 422 2925 492 
Q 3234 563 3494 697 
z
" transform="scale(0.015625)"/>
       <path id="DejaVuSans-Oblique-6e" d="M 3566 2113 
L 3156 0 
L 2578 0 
L 2988 2091 
Q 3016 2238 3031 2350 
Q 3047 2463 3047 2528 
Q 3047 2791 2881 2937 
Q 2716 3084 2419 3084 
Q 1956 3084 1622 2776 
Q 1288 2469 1184 1941 
L 800 0 
L 225 0 
L 903 3500 
L 1478 3500 
L 1363 2950 
Q 1603 3253 1940 3418 
Q 2278 3584 2650 3584 
Q 3113 3584 3367 3334 
Q 3622 3084 3622 2631 
Q 3622 2519 3608 2391 
Q 3594 2263 3566 2113 
z
" transform="scale(0.015625)"/>
       <path id="DejaVuSans-Oblique-6f" d="M 1625 -91 
Q 1009 -91 651 289 
Q 294 669 294 1325 
Q 294 1706 417 2101 
Q 541 2497 738 2766 
Q 1047 3184 1428 3384 
Q 1809 3584 2291 3584 
Q 2888 3584 3255 3212 
Q 3622 2841 3622 2241 
Q 3622 1825 3500 1412 
Q 3378 1000 3181 728 
Q 2875 309 2494 109 
Q 2113 -91 1625 -91 
z
M 891 1344 
Q 891 869 1089 633 
Q 1288 397 1691 397 
Q 2269 397 2648 901 
Q 3028 1406 3028 2181 
Q 3028 2634 2825 2865 
Q 2622 3097 2228 3097 
Q 1903 3097 1650 2945 
Q 1397 2794 1197 2484 
Q 1050 2253 970 1956 
Q 891 1659 891 1344 
z
" transform="scale(0.015625)"/>
       <path id="DejaVuSans-Oblique-72" d="M 2853 2969 
Q 2766 3016 2653 3041 
Q 2541 3066 2413 3066 
Q 1953 3066 1609 2717 
Q 1266 2369 1153 1784 
L 800 0 
L 225 0 
L 909 3500 
L 1484 3500 
L 1375 2956 
Q 1603 3259 1920 3421 
Q 2238 3584 2597 3584 
Q 2691 3584 2781 3573 
Q 2872 3563 2963 3538 
L 2853 2969 
z
" transform="scale(0.015625)"/>
       <path id="DejaVuSans-Oblique-6d" d="M 5747 2113 
L 5338 0 
L 4763 0 
L 5166 2094 
Q 5191 2228 5203 2325 
Q 5216 2422 5216 2491 
Q 5216 2772 5059 2928 
Q 4903 3084 4622 3084 
Q 4203 3084 3875 2770 
Q 3547 2456 3450 1953 
L 3066 0 
L 2491 0 
L 2900 2094 
Q 2925 2209 2937 2307 
Q 2950 2406 2950 2484 
Q 2950 2769 2794 2926 
Q 2638 3084 2363 3084 
Q 1938 3084 1609 2770 
Q 1281 2456 1184 1953 
L 800 0 
L 225 0 
L 909 3500 
L 1484 3500 
L 1375 2956 
Q 1609 3263 1923 3423 
Q 2238 3584 2597 3584 
Q 2978 3584 3223 3384 
Q 3469 3184 3519 2828 
Q 3781 3197 4126 3390 
Q 4472 3584 4856 3584 
Q 5306 3584 5551 3325 
Q 5797 3066 5797 2591 
Q 5797 2488 5784 2364 
Q 5772 2241 5747 2113 
z
" transform="scale(0.015625)"/>
      </defs>
      <use xlink:href="#DejaVuSans-Oblique-47" transform="translate(0 0.78125)"/>
      <use xlink:href="#DejaVuSans-Oblique-6e" transform="translate(77.490234 -15.625)scale(0.7)"/>
      <use xlink:href="#DejaVuSans-Oblique-6f" transform="translate(121.855469 -15.625)scale(0.7)"/>
      <use xlink:href="#DejaVuSans-Oblique-72" transform="translate(164.682617 -15.625)scale(0.7)"/>
      <use xlink:href="#DejaVuSans-Oblique-6d" transform="translate(193.461914 -15.625)scale(0.7)"/>
     </g>
    </g>
   </g>
   <g id="line2d_109">
    <path d="M 80.754545 159.241342 
L 309.127586 159.246855 
L 312.065795 162.55892 
L 314.845103 165.354459 
L 317.993312 168.187197 
L 321.437975 170.943078 
L 324.666235 173.249236 
L 328.123314 175.465553 
L 332.141349 177.759926 
L 336.226179 179.827691 
L 340.669213 181.81909 
L 345.359822 183.673399 
L 350.476108 185.449402 
L 355.865069 187.08427 
L 361.838395 188.657986 
L 368.348861 190.133621 
L 375.308458 191.480653 
L 383.041427 192.746293 
L 391.496074 193.901639 
L 400.929124 194.962429 
L 411.520312 195.924261 
L 423.467287 196.781037 
L 435.845455 197.471533 
L 435.845455 197.471533 
" clip-path="url(#p9b476eb9ad)" style="fill: none; stroke: #1f77b4; stroke-width: 3; stroke-linecap: square"/>
   </g>
   <g id="line2d_110">
    <path d="M 80.754545 118.735526 
L 248.235936 118.735526 
L 250.175966 119.620157 
L 252.045432 126.017055 
L 253.84929 131.342603 
L 255.591989 135.867105 
L 257.277539 139.7724 
L 258.90957 143.186451 
L 262.025959 148.890711 
L 264.964169 153.486621 
L 267.743477 157.282238 
L 270.380192 160.477718 
L 272.888234 163.209754 
L 276.43479 166.643787 
L 279.752372 169.474119 
L 282.868761 171.850333 
L 286.750202 174.486012 
L 290.359029 176.66199 
L 294.540575 178.902843 
L 299.147059 181.075702 
L 304.046448 183.099895 
L 309.127586 184.936033 
L 314.301133 186.572891 
L 319.989861 188.14354 
L 326.423831 189.676445 
L 333.287969 191.073864 
L 340.669213 192.349283 
L 348.826619 193.533177 
L 358.012212 194.635329 
L 368.157409 195.624304 
L 379.628031 196.51473 
L 392.699985 197.301748 
L 407.932484 197.989053 
L 425.894294 198.569637 
L 435.845455 198.812037 
L 435.845455 198.812037 
" clip-path="url(#p9b476eb9ad)" style="fill: none; stroke: #ff7f0e; stroke-width: 3; stroke-linecap: square"/>
   </g>
   <g id="line2d_111">
    <path d="M 80.754545 95.54231 
L 222.305577 95.54231 
L 222.631957 96.840659 
L 223.917141 104.263864 
L 225.479713 111.868056 
L 226.996185 118.142272 
L 228.758804 124.408265 
L 230.462982 129.656213 
L 232.382313 134.821661 
L 234.232553 139.203769 
L 234.749187 140.338361 
L 237.257229 145.378784 
L 239.648575 149.574363 
L 241.933604 153.131801 
L 244.121367 156.193057 
L 246.219808 158.859485 
L 248.235936 161.205729 
L 252.045432 165.150379 
L 255.591989 168.343895 
L 258.90957 170.986758 
L 262.025959 173.212743 
L 266.372604 175.966194 
L 270.380192 178.197828 
L 274.097812 180.044708 
L 278.670128 182.064409 
L 283.866941 184.073234 
L 289.480295 185.955353 
L 295.337563 187.652935 
L 301.304215 189.148072 
L 307.903607 190.57143 
L 315.383377 191.941417 
L 323.307442 193.160435 
L 332.141349 194.28967 
L 341.962481 195.315725 
L 353.112823 196.248486 
L 365.802585 197.076756 
L 380.389595 197.796849 
L 397.4694 198.409405 
L 418.094846 198.917624 
L 435.845455 199.215922 
L 435.845455 199.215922 
" clip-path="url(#p9b476eb9ad)" style="fill: none; stroke: #2ca02c; stroke-width: 3; stroke-linecap: square"/>
   </g>
   <g id="line2d_112">
    <path d="M 80.754545 79.343994 
L 204.017571 79.343994 
L 204.482774 80.073186 
L 205.853647 91.065148 
L 207.188908 99.714716 
L 208.490362 106.788048 
L 210.175912 114.512131 
L 211.807944 120.845051 
L 213.389751 126.167996 
L 215.300925 131.768093 
L 217.143584 136.485658 
L 219.270978 141.270991 
L 221.313816 145.326349 
L 223.598845 149.352332 
L 226.091681 153.239746 
L 228.469199 156.541189 
L 231.018714 159.713435 
L 233.710673 162.714169 
L 234.749187 163.787939 
L 237.257229 166.210885 
L 239.648575 168.320238 
L 244.121367 171.818571 
L 248.235936 174.606295 
L 252.045432 176.882967 
L 255.591989 178.778993 
L 260.491377 181.096806 
L 264.964169 182.952842 
L 270.380192 184.921196 
L 275.27958 186.478344 
L 280.8123 188.020893 
L 286.750202 189.460144 
L 293.731036 190.912024 
L 301.304215 192.243491 
L 309.728817 193.480738 
L 319.001279 194.60188 
L 329.362041 195.616271 
L 340.995593 196.519608 
L 354.130771 197.308786 
L 369.295567 197.991616 
L 387.310398 198.572845 
L 409.242785 199.048987 
L 435.845455 199.407606 
L 435.845455 199.407606 
" clip-path="url(#p9b476eb9ad)" style="fill: none; stroke: #d62728; stroke-width: 3; stroke-linecap: square"/>
   </g>
   <g id="line2d_113">
    <path d="M 80.754545 71.151467 
L 195.387709 71.151467 
L 195.937497 75.362041 
L 197.01974 85.096366 
L 198.079668 92.98967 
L 199.629675 102.513722 
L 201.13431 110.135666 
L 202.596153 116.435688 
L 204.482774 123.37005 
L 206.302599 129.088507 
L 208.060195 133.912013 
L 210.175912 138.998306 
L 212.207982 143.288633 
L 214.544961 147.64253 
L 216.780299 151.331477 
L 219.270978 154.990988 
L 221.646534 158.111279 
L 224.233478 161.163698 
L 226.996185 164.086537 
L 229.901177 166.841521 
L 232.917783 169.408376 
L 234.749187 170.839199 
L 239.648575 174.262472 
L 244.121367 176.953466 
L 248.235936 179.127109 
L 252.045432 180.920951 
L 257.277539 183.093722 
L 262.025959 184.817698 
L 267.743477 186.630566 
L 274.097812 188.362675 
L 280.8123 189.924656 
L 287.676437 191.285399 
L 295.337563 192.571335 
L 304.046448 193.788828 
L 313.195614 194.840993 
L 323.764376 195.825396 
L 335.50722 196.690712 
L 349.105235 197.462254 
L 364.788653 198.123108 
L 383.470398 198.681014 
L 406.405945 199.13481 
L 435.845455 199.483971 
L 435.845455 199.483971 
" clip-path="url(#p9b476eb9ad)" style="fill: none; stroke: #9467bd; stroke-width: 3; stroke-linecap: square"/>
   </g>
   <g id="line2d_114">
    <path d="M 80.754545 70.964655 
L 194.831977 70.964655 
L 195.387709 71.55497 
L 196.481467 82.122646 
L 197.552436 90.575655 
L 199.118182 100.660838 
L 200.637642 108.655974 
L 202.113476 115.220849 
L 203.548118 120.748374 
L 205.400739 126.92926 
L 207.188908 132.096596 
L 208.916959 136.500938 
L 210.998405 141.187534 
L 212.998839 145.172464 
L 215.300925 149.244459 
L 217.50432 152.715541 
L 219.960984 156.177069 
L 222.631957 159.531762 
L 225.479713 162.716301 
L 228.469199 165.694261 
L 231.568502 168.449029 
L 234.749187 170.977721 
L 239.648575 174.380448 
L 244.121367 177.056204 
L 248.235936 179.218095 
L 252.045432 181.002598 
L 257.277539 183.164475 
L 262.025959 184.880121 
L 267.743477 186.684521 
L 274.097812 188.408807 
L 280.8123 189.963951 
L 287.676437 191.318901 
L 295.337563 192.599499 
L 304.046448 193.812057 
L 313.751345 194.917288 
L 324.217283 195.87794 
L 336.226179 196.748878 
L 349.932138 197.511461 
L 365.802585 198.165475 
L 384.73624 198.716207 
L 408.109133 199.163759 
L 435.845455 199.485576 
L 435.845455 199.485576 
" clip-path="url(#p9b476eb9ad)" style="fill: none; stroke: #8c564b; stroke-width: 3; stroke-linecap: square"/>
   </g>
   <g id="line2d_115">
    <path d="M 80.754545 159.241342 
L 279.752372 159.241342 
L 280.8123 175.235933 
L 281.850813 188.988646 
L 282.868761 199.481758 
L 283.866941 207.907478 
L 284.846107 214.906337 
L 286.750202 226.023976 
L 288.586278 234.594902 
L 290.359029 241.489669 
L 292.072677 247.202301 
L 293.731036 252.039797 
L 295.337563 256.205694 
L 297.656964 261.49406 
L 299.876215 265.907385 
L 302.003609 269.658767 
L 304.709743 273.877568 
L 307.280512 277.413123 
L 309.728817 280.425432 
L 312.633808 283.622861 
L 315.383377 286.330182 
L 318.499766 289.081277 
L 321.911755 291.765028 
L 325.552545 294.308676 
L 329.362041 296.670839 
L 333.287969 298.833264 
L 337.634614 300.95385 
L 342.280777 302.950677 
L 347.12244 304.780032 
L 352.335911 306.506757 
L 358.012212 308.144452 
L 364.170553 309.680857 
L 370.77494 311.095845 
L 378.070194 312.426049 
L 386.107113 313.658146 
L 394.912533 314.778832 
L 404.73862 315.801292 
L 415.793313 316.723254 
L 428.390452 317.544629 
L 435.845455 317.939324 
L 435.845455 317.939324 
" clip-path="url(#p9b476eb9ad)" style="fill: none; stroke-dasharray: 11.1,4.8; stroke-dashoffset: 0; stroke: #1f77b4; stroke-width: 3"/>
   </g>
   <g id="line2d_116">
    <path d="M 80.754545 118.735526 
L 237.257229 118.735526 
L 239.648575 148.103836 
L 241.933604 187.598198 
L 244.121367 208.312943 
L 246.219808 222.071385 
L 248.235936 232.193363 
L 250.175966 240.087947 
L 252.045432 246.484846 
L 253.84929 251.810394 
L 255.591989 256.334896 
L 257.277539 260.240191 
L 258.90957 263.654242 
L 262.025959 269.358502 
L 264.964169 273.954412 
L 267.743477 277.750029 
L 270.380192 280.945509 
L 272.888234 283.677545 
L 276.43479 287.111578 
L 279.752372 289.941909 
L 282.868761 292.318124 
L 286.750202 294.953802 
L 290.359029 297.129781 
L 294.540575 299.370634 
L 299.147059 301.543493 
L 304.046448 303.567685 
L 309.127586 305.403824 
L 314.301133 307.040681 
L 319.989861 308.611331 
L 326.423831 310.144236 
L 333.287969 311.541655 
L 340.669213 312.817074 
L 348.826619 314.000968 
L 358.012212 315.103119 
L 368.157409 316.092095 
L 379.628031 316.982521 
L 392.699985 317.769539 
L 407.932484 318.456844 
L 425.894294 319.037428 
L 435.845455 319.279828 
L 435.845455 319.279828 
" clip-path="url(#p9b476eb9ad)" style="fill: none; stroke-dasharray: 11.1,4.8; stroke-dashoffset: 0; stroke: #ff7f0e; stroke-width: 3"/>
   </g>
   <g id="line2d_117">
    <path d="M 80.754545 95.54231 
L 215.300925 95.54231 
L 215.674779 99.502792 
L 216.414427 134.702906 
L 217.143584 155.069863 
L 217.862542 169.337015 
L 218.92247 184.876516 
L 219.960984 196.412333 
L 220.978931 205.518417 
L 222.305577 215.209492 
L 223.598845 223.005572 
L 225.170976 230.935909 
L 226.696449 237.442267 
L 228.469199 243.910791 
L 230.182847 249.308194 
L 232.112472 254.604514 
L 233.972275 259.08607 
L 234.749187 260.806152 
L 237.257229 265.846575 
L 239.648575 270.042154 
L 241.933604 273.599592 
L 244.121367 276.660848 
L 246.219808 279.327275 
L 248.235936 281.67352 
L 252.045432 285.61817 
L 255.591989 288.811686 
L 258.90957 291.454549 
L 262.025959 293.680534 
L 266.372604 296.433985 
L 270.380192 298.665619 
L 274.097812 300.512499 
L 278.670128 302.5322 
L 283.866941 304.541025 
L 289.480295 306.423144 
L 295.337563 308.120726 
L 301.304215 309.615862 
L 307.903607 311.039221 
L 315.383377 312.409208 
L 323.307442 313.628226 
L 332.141349 314.757461 
L 341.962481 315.783516 
L 353.112823 316.716277 
L 365.802585 317.544547 
L 380.389595 318.26464 
L 397.4694 318.877196 
L 418.094846 319.385415 
L 435.845455 319.683713 
L 435.845455 319.683713 
" clip-path="url(#p9b476eb9ad)" style="fill: none; stroke-dasharray: 11.1,4.8; stroke-dashoffset: 0; stroke: #2ca02c; stroke-width: 3"/>
   </g>
   <g id="line2d_118">
    <path d="M 80.754545 79.343994 
L 199.118182 79.343994 
L 199.629675 89.770748 
L 200.136129 120.385822 
L 200.637642 139.25902 
L 201.626224 163.467219 
L 202.596153 179.422474 
L 203.548118 191.230947 
L 204.482774 200.540977 
L 205.853647 211.532939 
L 207.188908 220.182507 
L 208.490362 227.255839 
L 210.175912 234.979921 
L 211.807944 241.312841 
L 213.389751 246.635787 
L 215.300925 252.235883 
L 217.143584 256.953449 
L 219.270978 261.738782 
L 221.313816 265.79414 
L 223.598845 269.820123 
L 226.091681 273.707536 
L 228.469199 277.00898 
L 231.018714 280.181225 
L 233.710673 283.18196 
L 234.749187 284.25573 
L 237.257229 286.678676 
L 239.648575 288.788029 
L 244.121367 292.286362 
L 248.235936 295.074086 
L 252.045432 297.350758 
L 255.591989 299.246784 
L 260.491377 301.564597 
L 264.964169 303.420633 
L 270.380192 305.388987 
L 275.27958 306.946135 
L 280.8123 308.488684 
L 286.750202 309.927934 
L 293.731036 311.379814 
L 301.304215 312.711282 
L 309.728817 313.948528 
L 319.001279 315.069671 
L 329.362041 316.084062 
L 340.995593 316.987399 
L 354.130771 317.776576 
L 369.295567 318.459407 
L 387.310398 319.040636 
L 409.242785 319.516778 
L 435.845455 319.875397 
L 435.845455 319.875397 
" clip-path="url(#p9b476eb9ad)" style="fill: none; stroke-dasharray: 11.1,4.8; stroke-dashoffset: 0; stroke: #d62728; stroke-width: 3"/>
   </g>
   <g id="line2d_119">
    <path d="M 80.754545 71.151467 
L 191.36518 71.151467 
L 191.959461 114.237064 
L 192.546949 137.944923 
L 193.127799 153.885123 
L 194.270172 175.375316 
L 195.387709 189.994195 
L 196.481467 200.974124 
L 197.552436 209.70012 
L 198.601548 216.894406 
L 200.136129 225.698398 
L 201.626224 232.829602 
L 203.074339 238.774826 
L 204.943806 245.366425 
L 206.747664 250.836391 
L 208.490362 255.472278 
L 210.588803 260.380897 
L 212.604931 264.536383 
L 214.924333 268.766625 
L 217.143584 272.360631 
L 219.617138 275.934422 
L 222.305577 279.38861 
L 224.860372 282.323241 
L 227.590466 285.14278 
L 230.462982 287.808657 
L 233.710673 290.506711 
L 234.749187 291.306989 
L 239.648575 294.730263 
L 244.121367 297.421257 
L 248.235936 299.594899 
L 252.045432 301.388742 
L 257.277539 303.561512 
L 262.025959 305.285488 
L 267.743477 307.098357 
L 274.097812 308.830466 
L 280.8123 310.392447 
L 287.676437 311.753189 
L 295.337563 313.039126 
L 304.046448 314.256618 
L 313.195614 315.308784 
L 323.764376 316.293186 
L 335.50722 317.158503 
L 349.105235 317.930045 
L 364.788653 318.590898 
L 383.470398 319.148804 
L 406.405945 319.602601 
L 435.845455 319.951762 
L 435.845455 319.951762 
" clip-path="url(#p9b476eb9ad)" style="fill: none; stroke-dasharray: 11.1,4.8; stroke-dashoffset: 0; stroke: #9467bd; stroke-width: 3"/>
   </g>
   <g id="line2d_120">
    <path d="M 80.754545 70.964655 
L 190.763949 70.964655 
L 191.36518 87.101087 
L 191.959461 122.887894 
L 192.546949 143.545629 
L 193.127799 158.026706 
L 194.270172 178.098499 
L 195.387709 192.022761 
L 196.481467 202.590437 
L 197.552436 211.043446 
L 199.118182 221.128629 
L 200.637642 229.123764 
L 202.113476 235.688639 
L 203.548118 241.216165 
L 205.400739 247.397051 
L 207.188908 252.564387 
L 208.916959 256.968729 
L 210.998405 261.655325 
L 212.998839 265.640255 
L 215.300925 269.71225 
L 217.50432 273.183332 
L 219.960984 276.64486 
L 222.631957 279.999553 
L 225.479713 283.184092 
L 228.469199 286.162052 
L 231.568502 288.91682 
L 234.749187 291.445511 
L 239.648575 294.848239 
L 244.121367 297.523995 
L 248.235936 299.685886 
L 252.045432 301.470388 
L 257.277539 303.632265 
L 262.025959 305.347912 
L 267.743477 307.152312 
L 274.097812 308.876598 
L 280.8123 310.431742 
L 287.676437 311.786692 
L 295.337563 313.06729 
L 304.046448 314.279848 
L 313.751345 315.385079 
L 324.217283 316.34573 
L 336.226179 317.216669 
L 349.932138 317.979252 
L 365.802585 318.633266 
L 384.73624 319.183998 
L 408.109133 319.631549 
L 435.845455 319.953366 
L 435.845455 319.953366 
" clip-path="url(#p9b476eb9ad)" style="fill: none; stroke-dasharray: 11.1,4.8; stroke-dashoffset: 0; stroke: #8c564b; stroke-width: 3"/>
   </g>
   <g id="line2d_121">
    <path clip-path="url(#p9b476eb9ad)" style="fill: none; stroke: #000000; stroke-width: 3; stroke-linecap: square"/>
   </g>
   <g id="line2d_122">
    <path clip-path="url(#p9b476eb9ad)" style="fill: none; stroke-dasharray: 11.1,4.8; stroke-dashoffset: 0; stroke: #000000; stroke-width: 3"/>
   </g>
   <g id="patch_3">
    <path d="M 63 320.4 
L 63 43.2 
" style="fill: none; stroke: #ffffff; stroke-linejoin: miter; stroke-linecap: square"/>
   </g>
   <g id="patch_4">
    <path d="M 453.6 320.4 
L 453.6 43.2 
" style="fill: none; stroke: #ffffff; stroke-linejoin: miter; stroke-linecap: square"/>
   </g>
   <g id="patch_5">
    <path d="M 63 320.4 
L 453.6 320.4 
" style="fill: none; stroke: #ffffff; stroke-linejoin: miter; stroke-linecap: square"/>
   </g>
   <g id="patch_6">
    <path d="M 63 43.2 
L 453.6 43.2 
" style="fill: none; stroke: #ffffff; stroke-linejoin: miter; stroke-linecap: square"/>
   </g>
   <g id="legend_1">
    <g id="text_10">
     <!-- $\gamma_{ED}}$ -->
     <g transform="translate(81.13125 221.23125)scale(0.1 -0.1)">
      <defs>
       <path id="DejaVuSans-Oblique-3b3" d="M 1491 2950 
L 1838 788 
L 3456 3500 
L 4066 3500 
L 1972 0 
L 1713 -1331 
L 1138 -1331 
L 1397 0 
L 988 2613 
Q 925 3006 628 3006 
L 475 3006 
L 569 3500 
L 788 3500 
Q 1403 3500 1491 2950 
z
" transform="scale(0.015625)"/>
      </defs>
      <use xlink:href="#DejaVuSans-Oblique-3b3" transform="translate(0 0.3125)"/>
      <use xlink:href="#DejaVuSans-Oblique-45" transform="translate(59.179688 -16.09375)scale(0.7)"/>
      <use xlink:href="#DejaVuSans-Oblique-44" transform="translate(103.408203 -16.09375)scale(0.7)"/>
     </g>
    </g>
    <g id="line2d_123">
     <path d="M 72 232.429688 
L 82 232.429688 
L 92 232.429688 
" style="fill: none; stroke: #1f77b4; stroke-width: 3; stroke-linecap: square"/>
    </g>
    <g id="text_11">
     <!-- 1 -->
     <g transform="translate(100 235.929688)scale(0.1 -0.1)">
      <use xlink:href="#DejaVuSans-31"/>
     </g>
    </g>
    <g id="line2d_124">
     <path d="M 72 247.107813 
L 82 247.107813 
L 92 247.107813 
" style="fill: none; stroke: #ff7f0e; stroke-width: 3; stroke-linecap: square"/>
    </g>
    <g id="text_12">
     <!-- 2 -->
     <g transform="translate(100 250.607813)scale(0.1 -0.1)">
      <use xlink:href="#DejaVuSans-32"/>
     </g>
    </g>
    <g id="line2d_125">
     <path d="M 72 261.785938 
L 82 261.785938 
L 92 261.785938 
" style="fill: none; stroke: #2ca02c; stroke-width: 3; stroke-linecap: square"/>
    </g>
    <g id="text_13">
     <!-- 3 -->
     <g transform="translate(100 265.285938)scale(0.1 -0.1)">
      <use xlink:href="#DejaVuSans-33"/>
     </g>
    </g>
    <g id="line2d_126">
     <path d="M 72 276.464063 
L 82 276.464063 
L 92 276.464063 
" style="fill: none; stroke: #d62728; stroke-width: 3; stroke-linecap: square"/>
    </g>
    <g id="text_14">
     <!-- 4 -->
     <g transform="translate(100 279.964063)scale(0.1 -0.1)">
      <defs>
       <path id="DejaVuSans-34" d="M 2419 4116 
L 825 1625 
L 2419 1625 
L 2419 4116 
z
M 2253 4666 
L 3047 4666 
L 3047 1625 
L 3713 1625 
L 3713 1100 
L 3047 1100 
L 3047 0 
L 2419 0 
L 2419 1100 
L 313 1100 
L 313 1709 
L 2253 4666 
z
" transform="scale(0.015625)"/>
      </defs>
      <use xlink:href="#DejaVuSans-34"/>
     </g>
    </g>
    <g id="line2d_127">
     <path d="M 72 291.142188 
L 82 291.142188 
L 92 291.142188 
" style="fill: none; stroke: #9467bd; stroke-width: 3; stroke-linecap: square"/>
    </g>
    <g id="text_15">
     <!-- 5 -->
     <g transform="translate(100 294.642188)scale(0.1 -0.1)">
      <defs>
       <path id="DejaVuSans-35" d="M 691 4666 
L 3169 4666 
L 3169 4134 
L 1269 4134 
L 1269 2991 
Q 1406 3038 1543 3061 
Q 1681 3084 1819 3084 
Q 2600 3084 3056 2656 
Q 3513 2228 3513 1497 
Q 3513 744 3044 326 
Q 2575 -91 1722 -91 
Q 1428 -91 1123 -41 
Q 819 9 494 109 
L 494 744 
Q 775 591 1075 516 
Q 1375 441 1709 441 
Q 2250 441 2565 725 
Q 2881 1009 2881 1497 
Q 2881 1984 2565 2268 
Q 2250 2553 1709 2553 
Q 1456 2553 1204 2497 
Q 953 2441 691 2322 
L 691 4666 
z
" transform="scale(0.015625)"/>
      </defs>
      <use xlink:href="#DejaVuSans-35"/>
     </g>
    </g>
    <g id="line2d_128">
     <path d="M 72 305.820312 
L 82 305.820312 
L 92 305.820312 
" style="fill: none; stroke: #8c564b; stroke-width: 3; stroke-linecap: square"/>
    </g>
    <g id="text_16">
     <!-- 6 -->
     <g transform="translate(100 309.320312)scale(0.1 -0.1)">
      <defs>
       <path id="DejaVuSans-36" d="M 2113 2584 
Q 1688 2584 1439 2293 
Q 1191 2003 1191 1497 
Q 1191 994 1439 701 
Q 1688 409 2113 409 
Q 2538 409 2786 701 
Q 3034 994 3034 1497 
Q 3034 2003 2786 2293 
Q 2538 2584 2113 2584 
z
M 3366 4563 
L 3366 3988 
Q 3128 4100 2886 4159 
Q 2644 4219 2406 4219 
Q 1781 4219 1451 3797 
Q 1122 3375 1075 2522 
Q 1259 2794 1537 2939 
Q 1816 3084 2150 3084 
Q 2853 3084 3261 2657 
Q 3669 2231 3669 1497 
Q 3669 778 3244 343 
Q 2819 -91 2113 -91 
Q 1303 -91 875 529 
Q 447 1150 447 2328 
Q 447 3434 972 4092 
Q 1497 4750 2381 4750 
Q 2619 4750 2861 4703 
Q 3103 4656 3366 4563 
z
" transform="scale(0.015625)"/>
      </defs>
      <use xlink:href="#DejaVuSans-36"/>
     </g>
    </g>
   </g>
   <g id="legend_2">
    <g id="line2d_129">
     <path d="M 354 56.298437 
L 364 56.298437 
L 374 56.298437 
" style="fill: none; stroke: #000000; stroke-width: 3; stroke-linecap: square"/>
    </g>
    <g id="text_17">
     <!-- $I_{norm} =0.01$ -->
     <g transform="translate(382 59.798437)scale(0.1 -0.1)">
      <defs>
       <path id="DejaVuSans-Oblique-49" d="M 1081 4666 
L 1716 4666 
L 806 0 
L 172 0 
L 1081 4666 
z
" transform="scale(0.015625)"/>
       <path id="DejaVuSans-3d" d="M 678 2906 
L 4684 2906 
L 4684 2381 
L 678 2381 
L 678 2906 
z
M 678 1631 
L 4684 1631 
L 4684 1100 
L 678 1100 
L 678 1631 
z
" transform="scale(0.015625)"/>
       <path id="DejaVuSans-2e" d="M 684 794 
L 1344 794 
L 1344 0 
L 684 0 
L 684 794 
z
" transform="scale(0.015625)"/>
      </defs>
      <use xlink:href="#DejaVuSans-Oblique-49" transform="translate(0 0.78125)"/>
      <use xlink:href="#DejaVuSans-Oblique-6e" transform="translate(29.492188 -15.625)scale(0.7)"/>
      <use xlink:href="#DejaVuSans-Oblique-6f" transform="translate(73.857422 -15.625)scale(0.7)"/>
      <use xlink:href="#DejaVuSans-Oblique-72" transform="translate(116.68457 -15.625)scale(0.7)"/>
      <use xlink:href="#DejaVuSans-Oblique-6d" transform="translate(145.463867 -15.625)scale(0.7)"/>
      <use xlink:href="#DejaVuSans-3d" transform="translate(235.869141 0.78125)"/>
      <use xlink:href="#DejaVuSans-30" transform="translate(339.140625 0.78125)"/>
      <use xlink:href="#DejaVuSans-2e" transform="translate(402.763672 0.78125)"/>
      <use xlink:href="#DejaVuSans-30" transform="translate(434.550781 0.78125)"/>
      <use xlink:href="#DejaVuSans-31" transform="translate(498.173828 0.78125)"/>
     </g>
    </g>
    <g id="line2d_130">
     <path d="M 354 70.976562 
L 364 70.976562 
L 374 70.976562 
" style="fill: none; stroke-dasharray: 11.1,4.8; stroke-dashoffset: 0; stroke: #000000; stroke-width: 3"/>
    </g>
    <g id="text_18">
     <!-- $I_{norm} =0.001$ -->
     <g transform="translate(382 74.476562)scale(0.1 -0.1)">
      <use xlink:href="#DejaVuSans-Oblique-49" transform="translate(0 0.78125)"/>
      <use xlink:href="#DejaVuSans-Oblique-6e" transform="translate(29.492188 -15.625)scale(0.7)"/>
      <use xlink:href="#DejaVuSans-Oblique-6f" transform="translate(73.857422 -15.625)scale(0.7)"/>
      <use xlink:href="#DejaVuSans-Oblique-72" transform="translate(116.68457 -15.625)scale(0.7)"/>
      <use xlink:href="#DejaVuSans-Oblique-6d" transform="translate(145.463867 -15.625)scale(0.7)"/>
      <use xlink:href="#DejaVuSans-3d" transform="translate(235.869141 0.78125)"/>
      <use xlink:href="#DejaVuSans-30" transform="translate(339.140625 0.78125)"/>
      <use xlink:href="#DejaVuSans-2e" transform="translate(402.763672 0.78125)"/>
      <use xlink:href="#DejaVuSans-30" transform="translate(434.550781 0.78125)"/>
      <use xlink:href="#DejaVuSans-30" transform="translate(498.173828 0.78125)"/>
      <use xlink:href="#DejaVuSans-31" transform="translate(561.796875 0.78125)"/>
     </g>
    </g>
   </g>
  </g>
 </g>
 <defs>
  <clipPath id="p9b476eb9ad">
   <rect x="63" y="43.2" width="390.6" height="277.2"/>
  </clipPath>
 </defs>
</svg>
