<?xml version="1.0" encoding="utf-8" standalone="no"?>
<!DOCTYPE svg PUBLIC "-//W3C//DTD SVG 1.1//EN"
  "http://www.w3.org/Graphics/SVG/1.1/DTD/svg11.dtd">
<svg xmlns:xlink="http://www.w3.org/1999/xlink" width="1008pt" height="432pt" viewBox="0 0 1008 432" xmlns="http://www.w3.org/2000/svg" version="1.1">
 <metadata>
  <rdf:RDF xmlns:dc="http://purl.org/dc/elements/1.1/" xmlns:cc="http://creativecommons.org/ns#" xmlns:rdf="http://www.w3.org/1999/02/22-rdf-syntax-ns#">
   <cc:Work>
    <dc:type rdf:resource="http://purl.org/dc/dcmitype/StillImage"/>
    <dc:date>2022-01-03T23:25:52.781636</dc:date>
    <dc:format>image/svg+xml</dc:format>
    <dc:creator>
     <cc:Agent>
      <dc:title>Matplotlib v3.5.0, https://matplotlib.org/</dc:title>
     </cc:Agent>
    </dc:creator>
   </cc:Work>
  </rdf:RDF>
 </metadata>
 <defs>
  <style type="text/css">*{stroke-linejoin: round; stroke-linecap: butt}</style>
 </defs>
 <g id="figure_1">
  <g id="patch_1">
   <path d="M 0 432 
L 1008 432 
L 1008 0 
L 0 0 
z
" style="fill: #ffffff"/>
  </g>
  <g id="axes_1">
   <g id="patch_2">
    <path d="M 89.912 372.76 
L 468.35 372.76 
L 468.35 40.392 
L 89.912 40.392 
z
" style="fill: #e5e5e5"/>
   </g>
   <g id="matplotlib.axis_1">
    <g id="xtick_1">
     <g id="line2d_1">
      <path d="M 104.936293 372.76 
L 104.936293 40.392 
" clip-path="url(#p27e173c250)" style="fill: none; stroke: #ffffff; stroke-width: 0.8; stroke-linecap: square"/>
     </g>
     <g id="line2d_2">
      <defs>
       <path id="m2042f8e102" d="M 0 0 
L 0 3.5 
" style="stroke: #555555; stroke-width: 0.8"/>
      </defs>
      <g>
       <use xlink:href="#m2042f8e102" x="104.936293" y="372.76" style="fill: #555555; stroke: #555555; stroke-width: 0.8"/>
      </g>
     </g>
     <g id="text_1">
      <!-- 0 -->
      <g style="fill: #555555" transform="translate(99.846293 391.9175)scale(0.16 -0.16)">
       <defs>
        <path id="DejaVuSans-30" d="M 2034 4250 
Q 1547 4250 1301 3770 
Q 1056 3291 1056 2328 
Q 1056 1369 1301 889 
Q 1547 409 2034 409 
Q 2525 409 2770 889 
Q 3016 1369 3016 2328 
Q 3016 3291 2770 3770 
Q 2525 4250 2034 4250 
z
M 2034 4750 
Q 2819 4750 3233 4129 
Q 3647 3509 3647 2328 
Q 3647 1150 3233 529 
Q 2819 -91 2034 -91 
Q 1250 -91 836 529 
Q 422 1150 422 2328 
Q 422 3509 836 4129 
Q 1250 4750 2034 4750 
z
" transform="scale(0.015625)"/>
       </defs>
       <use xlink:href="#DejaVuSans-30"/>
      </g>
     </g>
    </g>
    <g id="xtick_2">
     <g id="line2d_3">
      <path d="M 192.033647 372.76 
L 192.033647 40.392 
" clip-path="url(#p27e173c250)" style="fill: none; stroke: #ffffff; stroke-width: 0.8; stroke-linecap: square"/>
     </g>
     <g id="line2d_4">
      <g>
       <use xlink:href="#m2042f8e102" x="192.033647" y="372.76" style="fill: #555555; stroke: #555555; stroke-width: 0.8"/>
      </g>
     </g>
     <g id="text_2">
      <!-- 2 -->
      <g style="fill: #555555" transform="translate(186.943647 391.9175)scale(0.16 -0.16)">
       <defs>
        <path id="DejaVuSans-32" d="M 1228 531 
L 3431 531 
L 3431 0 
L 469 0 
L 469 531 
Q 828 903 1448 1529 
Q 2069 2156 2228 2338 
Q 2531 2678 2651 2914 
Q 2772 3150 2772 3378 
Q 2772 3750 2511 3984 
Q 2250 4219 1831 4219 
Q 1534 4219 1204 4116 
Q 875 4013 500 3803 
L 500 4441 
Q 881 4594 1212 4672 
Q 1544 4750 1819 4750 
Q 2544 4750 2975 4387 
Q 3406 4025 3406 3419 
Q 3406 3131 3298 2873 
Q 3191 2616 2906 2266 
Q 2828 2175 2409 1742 
Q 1991 1309 1228 531 
z
" transform="scale(0.015625)"/>
       </defs>
       <use xlink:href="#DejaVuSans-32"/>
      </g>
     </g>
    </g>
    <g id="xtick_3">
     <g id="line2d_5">
      <path d="M 279.131 372.76 
L 279.131 40.392 
" clip-path="url(#p27e173c250)" style="fill: none; stroke: #ffffff; stroke-width: 0.8; stroke-linecap: square"/>
     </g>
     <g id="line2d_6">
      <g>
       <use xlink:href="#m2042f8e102" x="279.131" y="372.76" style="fill: #555555; stroke: #555555; stroke-width: 0.8"/>
      </g>
     </g>
     <g id="text_3">
      <!-- 4 -->
      <g style="fill: #555555" transform="translate(274.041 391.9175)scale(0.16 -0.16)">
       <defs>
        <path id="DejaVuSans-34" d="M 2419 4116 
L 825 1625 
L 2419 1625 
L 2419 4116 
z
M 2253 4666 
L 3047 4666 
L 3047 1625 
L 3713 1625 
L 3713 1100 
L 3047 1100 
L 3047 0 
L 2419 0 
L 2419 1100 
L 313 1100 
L 313 1709 
L 2253 4666 
z
" transform="scale(0.015625)"/>
       </defs>
       <use xlink:href="#DejaVuSans-34"/>
      </g>
     </g>
    </g>
    <g id="xtick_4">
     <g id="line2d_7">
      <path d="M 366.228353 372.76 
L 366.228353 40.392 
" clip-path="url(#p27e173c250)" style="fill: none; stroke: #ffffff; stroke-width: 0.8; stroke-linecap: square"/>
     </g>
     <g id="line2d_8">
      <g>
       <use xlink:href="#m2042f8e102" x="366.228353" y="372.76" style="fill: #555555; stroke: #555555; stroke-width: 0.8"/>
      </g>
     </g>
     <g id="text_4">
      <!-- 6 -->
      <g style="fill: #555555" transform="translate(361.138353 391.9175)scale(0.16 -0.16)">
       <defs>
        <path id="DejaVuSans-36" d="M 2113 2584 
Q 1688 2584 1439 2293 
Q 1191 2003 1191 1497 
Q 1191 994 1439 701 
Q 1688 409 2113 409 
Q 2538 409 2786 701 
Q 3034 994 3034 1497 
Q 3034 2003 2786 2293 
Q 2538 2584 2113 2584 
z
M 3366 4563 
L 3366 3988 
Q 3128 4100 2886 4159 
Q 2644 4219 2406 4219 
Q 1781 4219 1451 3797 
Q 1122 3375 1075 2522 
Q 1259 2794 1537 2939 
Q 1816 3084 2150 3084 
Q 2853 3084 3261 2657 
Q 3669 2231 3669 1497 
Q 3669 778 3244 343 
Q 2819 -91 2113 -91 
Q 1303 -91 875 529 
Q 447 1150 447 2328 
Q 447 3434 972 4092 
Q 1497 4750 2381 4750 
Q 2619 4750 2861 4703 
Q 3103 4656 3366 4563 
z
" transform="scale(0.015625)"/>
       </defs>
       <use xlink:href="#DejaVuSans-36"/>
      </g>
     </g>
    </g>
    <g id="xtick_5">
     <g id="line2d_9">
      <path d="M 453.325707 372.76 
L 453.325707 40.392 
" clip-path="url(#p27e173c250)" style="fill: none; stroke: #ffffff; stroke-width: 0.8; stroke-linecap: square"/>
     </g>
     <g id="line2d_10">
      <g>
       <use xlink:href="#m2042f8e102" x="453.325707" y="372.76" style="fill: #555555; stroke: #555555; stroke-width: 0.8"/>
      </g>
     </g>
     <g id="text_5">
      <!-- 8 -->
      <g style="fill: #555555" transform="translate(448.235707 391.9175)scale(0.16 -0.16)">
       <defs>
        <path id="DejaVuSans-38" d="M 2034 2216 
Q 1584 2216 1326 1975 
Q 1069 1734 1069 1313 
Q 1069 891 1326 650 
Q 1584 409 2034 409 
Q 2484 409 2743 651 
Q 3003 894 3003 1313 
Q 3003 1734 2745 1975 
Q 2488 2216 2034 2216 
z
M 1403 2484 
Q 997 2584 770 2862 
Q 544 3141 544 3541 
Q 544 4100 942 4425 
Q 1341 4750 2034 4750 
Q 2731 4750 3128 4425 
Q 3525 4100 3525 3541 
Q 3525 3141 3298 2862 
Q 3072 2584 2669 2484 
Q 3125 2378 3379 2068 
Q 3634 1759 3634 1313 
Q 3634 634 3220 271 
Q 2806 -91 2034 -91 
Q 1263 -91 848 271 
Q 434 634 434 1313 
Q 434 1759 690 2068 
Q 947 2378 1403 2484 
z
M 1172 3481 
Q 1172 3119 1398 2916 
Q 1625 2713 2034 2713 
Q 2441 2713 2670 2916 
Q 2900 3119 2900 3481 
Q 2900 3844 2670 4047 
Q 2441 4250 2034 4250 
Q 1625 4250 1398 4047 
Q 1172 3844 1172 3481 
z
" transform="scale(0.015625)"/>
       </defs>
       <use xlink:href="#DejaVuSans-38"/>
      </g>
     </g>
    </g>
    <g id="text_6">
     <!-- ${\gamma_{ED}}$ -->
     <g style="fill: #555555" transform="translate(261.421 415.916875)scale(0.22 -0.22)">
      <defs>
       <path id="DejaVuSans-Oblique-3b3" d="M 1491 2950 
L 1838 788 
L 3456 3500 
L 4066 3500 
L 1972 0 
L 1713 -1331 
L 1138 -1331 
L 1397 0 
L 988 2613 
Q 925 3006 628 3006 
L 475 3006 
L 569 3500 
L 788 3500 
Q 1403 3500 1491 2950 
z
" transform="scale(0.015625)"/>
       <path id="DejaVuSans-Oblique-45" d="M 1081 4666 
L 4031 4666 
L 3928 4134 
L 1606 4134 
L 1338 2753 
L 3566 2753 
L 3463 2222 
L 1234 2222 
L 909 531 
L 3284 531 
L 3181 0 
L 172 0 
L 1081 4666 
z
" transform="scale(0.015625)"/>
       <path id="DejaVuSans-Oblique-44" d="M 1081 4666 
L 2438 4666 
Q 3519 4666 4070 4208 
Q 4622 3750 4622 2847 
Q 4622 2250 4412 1698 
Q 4203 1147 3834 769 
Q 3463 381 2891 190 
Q 2319 0 1538 0 
L 172 0 
L 1081 4666 
z
M 1613 4147 
L 909 519 
L 1734 519 
Q 2794 519 3375 1128 
Q 3956 1738 3956 2847 
Q 3956 3519 3581 3833 
Q 3206 4147 2406 4147 
L 1613 4147 
z
" transform="scale(0.015625)"/>
      </defs>
      <use xlink:href="#DejaVuSans-Oblique-3b3" transform="translate(0 0.3125)"/>
      <use xlink:href="#DejaVuSans-Oblique-45" transform="translate(59.179688 -16.09375)scale(0.7)"/>
      <use xlink:href="#DejaVuSans-Oblique-44" transform="translate(103.408203 -16.09375)scale(0.7)"/>
     </g>
    </g>
   </g>
   <g id="matplotlib.axis_2">
    <g id="ytick_1">
     <g id="line2d_11">
      <path d="M 89.912 359.987336 
L 468.35 359.987336 
" clip-path="url(#p27e173c250)" style="fill: none; stroke: #ffffff; stroke-width: 0.8; stroke-linecap: square"/>
     </g>
     <g id="line2d_12">
      <defs>
       <path id="m56472a580f" d="M 0 0 
L -3.5 0 
" style="stroke: #555555; stroke-width: 0.8"/>
      </defs>
      <g>
       <use xlink:href="#m56472a580f" x="89.912" y="359.987336" style="fill: #555555; stroke: #555555; stroke-width: 0.8"/>
      </g>
     </g>
     <g id="text_7">
      <!-- 0.004 -->
      <g style="fill: #555555" transform="translate(37.107 366.066086)scale(0.16 -0.16)">
       <defs>
        <path id="DejaVuSans-2e" d="M 684 794 
L 1344 794 
L 1344 0 
L 684 0 
L 684 794 
z
" transform="scale(0.015625)"/>
       </defs>
       <use xlink:href="#DejaVuSans-30"/>
       <use xlink:href="#DejaVuSans-2e" x="63.623047"/>
       <use xlink:href="#DejaVuSans-30" x="95.410156"/>
       <use xlink:href="#DejaVuSans-30" x="159.033203"/>
       <use xlink:href="#DejaVuSans-34" x="222.65625"/>
      </g>
     </g>
    </g>
    <g id="ytick_2">
     <g id="line2d_13">
      <path d="M 89.912 298.484418 
L 468.35 298.484418 
" clip-path="url(#p27e173c250)" style="fill: none; stroke: #ffffff; stroke-width: 0.8; stroke-linecap: square"/>
     </g>
     <g id="line2d_14">
      <g>
       <use xlink:href="#m56472a580f" x="89.912" y="298.484418" style="fill: #555555; stroke: #555555; stroke-width: 0.8"/>
      </g>
     </g>
     <g id="text_8">
      <!-- 0.006 -->
      <g style="fill: #555555" transform="translate(37.107 304.563168)scale(0.16 -0.16)">
       <use xlink:href="#DejaVuSans-30"/>
       <use xlink:href="#DejaVuSans-2e" x="63.623047"/>
       <use xlink:href="#DejaVuSans-30" x="95.410156"/>
       <use xlink:href="#DejaVuSans-30" x="159.033203"/>
       <use xlink:href="#DejaVuSans-36" x="222.65625"/>
      </g>
     </g>
    </g>
    <g id="ytick_3">
     <g id="line2d_15">
      <path d="M 89.912 236.9815 
L 468.35 236.9815 
" clip-path="url(#p27e173c250)" style="fill: none; stroke: #ffffff; stroke-width: 0.8; stroke-linecap: square"/>
     </g>
     <g id="line2d_16">
      <g>
       <use xlink:href="#m56472a580f" x="89.912" y="236.9815" style="fill: #555555; stroke: #555555; stroke-width: 0.8"/>
      </g>
     </g>
     <g id="text_9">
      <!-- 0.008 -->
      <g style="fill: #555555" transform="translate(37.107 243.06025)scale(0.16 -0.16)">
       <use xlink:href="#DejaVuSans-30"/>
       <use xlink:href="#DejaVuSans-2e" x="63.623047"/>
       <use xlink:href="#DejaVuSans-30" x="95.410156"/>
       <use xlink:href="#DejaVuSans-30" x="159.033203"/>
       <use xlink:href="#DejaVuSans-38" x="222.65625"/>
      </g>
     </g>
    </g>
    <g id="ytick_4">
     <g id="line2d_17">
      <path d="M 89.912 175.478582 
L 468.35 175.478582 
" clip-path="url(#p27e173c250)" style="fill: none; stroke: #ffffff; stroke-width: 0.8; stroke-linecap: square"/>
     </g>
     <g id="line2d_18">
      <g>
       <use xlink:href="#m56472a580f" x="89.912" y="175.478582" style="fill: #555555; stroke: #555555; stroke-width: 0.8"/>
      </g>
     </g>
     <g id="text_10">
      <!-- 0.010 -->
      <g style="fill: #555555" transform="translate(37.107 181.557332)scale(0.16 -0.16)">
       <defs>
        <path id="DejaVuSans-31" d="M 794 531 
L 1825 531 
L 1825 4091 
L 703 3866 
L 703 4441 
L 1819 4666 
L 2450 4666 
L 2450 531 
L 3481 531 
L 3481 0 
L 794 0 
L 794 531 
z
" transform="scale(0.015625)"/>
       </defs>
       <use xlink:href="#DejaVuSans-30"/>
       <use xlink:href="#DejaVuSans-2e" x="63.623047"/>
       <use xlink:href="#DejaVuSans-30" x="95.410156"/>
       <use xlink:href="#DejaVuSans-31" x="159.033203"/>
       <use xlink:href="#DejaVuSans-30" x="222.65625"/>
      </g>
     </g>
    </g>
    <g id="ytick_5">
     <g id="line2d_19">
      <path d="M 89.912 113.975664 
L 468.35 113.975664 
" clip-path="url(#p27e173c250)" style="fill: none; stroke: #ffffff; stroke-width: 0.8; stroke-linecap: square"/>
     </g>
     <g id="line2d_20">
      <g>
       <use xlink:href="#m56472a580f" x="89.912" y="113.975664" style="fill: #555555; stroke: #555555; stroke-width: 0.8"/>
      </g>
     </g>
     <g id="text_11">
      <!-- 0.012 -->
      <g style="fill: #555555" transform="translate(37.107 120.054414)scale(0.16 -0.16)">
       <use xlink:href="#DejaVuSans-30"/>
       <use xlink:href="#DejaVuSans-2e" x="63.623047"/>
       <use xlink:href="#DejaVuSans-30" x="95.410156"/>
       <use xlink:href="#DejaVuSans-31" x="159.033203"/>
       <use xlink:href="#DejaVuSans-32" x="222.65625"/>
      </g>
     </g>
    </g>
    <g id="ytick_6">
     <g id="line2d_21">
      <path d="M 89.912 52.472746 
L 468.35 52.472746 
" clip-path="url(#p27e173c250)" style="fill: none; stroke: #ffffff; stroke-width: 0.8; stroke-linecap: square"/>
     </g>
     <g id="line2d_22">
      <g>
       <use xlink:href="#m56472a580f" x="89.912" y="52.472746" style="fill: #555555; stroke: #555555; stroke-width: 0.8"/>
      </g>
     </g>
     <g id="text_12">
      <!-- 0.014 -->
      <g style="fill: #555555" transform="translate(37.107 58.551496)scale(0.16 -0.16)">
       <use xlink:href="#DejaVuSans-30"/>
       <use xlink:href="#DejaVuSans-2e" x="63.623047"/>
       <use xlink:href="#DejaVuSans-30" x="95.410156"/>
       <use xlink:href="#DejaVuSans-31" x="159.033203"/>
       <use xlink:href="#DejaVuSans-34" x="222.65625"/>
      </g>
     </g>
    </g>
    <g id="text_13">
     <!-- ${G_{norm}}$ -->
     <g style="fill: #555555" transform="translate(28.531688 235.726)rotate(-90)scale(0.22 -0.22)">
      <defs>
       <path id="DejaVuSans-Oblique-47" d="M 3494 697 
L 3738 1919 
L 2700 1919 
L 2797 2438 
L 4453 2438 
L 4050 384 
Q 3634 156 3143 32 
Q 2653 -91 2156 -91 
Q 1278 -91 783 396 
Q 288 884 288 1753 
Q 288 2475 589 3126 
Q 891 3778 1422 4213 
Q 1756 4484 2153 4617 
Q 2550 4750 3034 4750 
Q 3472 4750 3873 4639 
Q 4275 4528 4641 4306 
L 4513 3634 
Q 4231 3928 3853 4083 
Q 3475 4238 3047 4238 
Q 2550 4238 2172 4048 
Q 1794 3859 1497 3463 
Q 1244 3125 1098 2667 
Q 953 2209 953 1734 
Q 953 1081 1287 751 
Q 1622 422 2284 422 
Q 2616 422 2925 492 
Q 3234 563 3494 697 
z
" transform="scale(0.015625)"/>
       <path id="DejaVuSans-Oblique-6e" d="M 3566 2113 
L 3156 0 
L 2578 0 
L 2988 2091 
Q 3016 2238 3031 2350 
Q 3047 2463 3047 2528 
Q 3047 2791 2881 2937 
Q 2716 3084 2419 3084 
Q 1956 3084 1622 2776 
Q 1288 2469 1184 1941 
L 800 0 
L 225 0 
L 903 3500 
L 1478 3500 
L 1363 2950 
Q 1603 3253 1940 3418 
Q 2278 3584 2650 3584 
Q 3113 3584 3367 3334 
Q 3622 3084 3622 2631 
Q 3622 2519 3608 2391 
Q 3594 2263 3566 2113 
z
" transform="scale(0.015625)"/>
       <path id="DejaVuSans-Oblique-6f" d="M 1625 -91 
Q 1009 -91 651 289 
Q 294 669 294 1325 
Q 294 1706 417 2101 
Q 541 2497 738 2766 
Q 1047 3184 1428 3384 
Q 1809 3584 2291 3584 
Q 2888 3584 3255 3212 
Q 3622 2841 3622 2241 
Q 3622 1825 3500 1412 
Q 3378 1000 3181 728 
Q 2875 309 2494 109 
Q 2113 -91 1625 -91 
z
M 891 1344 
Q 891 869 1089 633 
Q 1288 397 1691 397 
Q 2269 397 2648 901 
Q 3028 1406 3028 2181 
Q 3028 2634 2825 2865 
Q 2622 3097 2228 3097 
Q 1903 3097 1650 2945 
Q 1397 2794 1197 2484 
Q 1050 2253 970 1956 
Q 891 1659 891 1344 
z
" transform="scale(0.015625)"/>
       <path id="DejaVuSans-Oblique-72" d="M 2853 2969 
Q 2766 3016 2653 3041 
Q 2541 3066 2413 3066 
Q 1953 3066 1609 2717 
Q 1266 2369 1153 1784 
L 800 0 
L 225 0 
L 909 3500 
L 1484 3500 
L 1375 2956 
Q 1603 3259 1920 3421 
Q 2238 3584 2597 3584 
Q 2691 3584 2781 3573 
Q 2872 3563 2963 3538 
L 2853 2969 
z
" transform="scale(0.015625)"/>
       <path id="DejaVuSans-Oblique-6d" d="M 5747 2113 
L 5338 0 
L 4763 0 
L 5166 2094 
Q 5191 2228 5203 2325 
Q 5216 2422 5216 2491 
Q 5216 2772 5059 2928 
Q 4903 3084 4622 3084 
Q 4203 3084 3875 2770 
Q 3547 2456 3450 1953 
L 3066 0 
L 2491 0 
L 2900 2094 
Q 2925 2209 2937 2307 
Q 2950 2406 2950 2484 
Q 2950 2769 2794 2926 
Q 2638 3084 2363 3084 
Q 1938 3084 1609 2770 
Q 1281 2456 1184 1953 
L 800 0 
L 225 0 
L 909 3500 
L 1484 3500 
L 1375 2956 
Q 1609 3263 1923 3423 
Q 2238 3584 2597 3584 
Q 2978 3584 3223 3384 
Q 3469 3184 3519 2828 
Q 3781 3197 4126 3390 
Q 4472 3584 4856 3584 
Q 5306 3584 5551 3325 
Q 5797 3066 5797 2591 
Q 5797 2488 5784 2364 
Q 5772 2241 5747 2113 
z
" transform="scale(0.015625)"/>
      </defs>
      <use xlink:href="#DejaVuSans-Oblique-47" transform="translate(0 0.78125)"/>
      <use xlink:href="#DejaVuSans-Oblique-6e" transform="translate(77.490234 -15.625)scale(0.7)"/>
      <use xlink:href="#DejaVuSans-Oblique-6f" transform="translate(121.855469 -15.625)scale(0.7)"/>
      <use xlink:href="#DejaVuSans-Oblique-72" transform="translate(164.682617 -15.625)scale(0.7)"/>
      <use xlink:href="#DejaVuSans-Oblique-6d" transform="translate(193.461914 -15.625)scale(0.7)"/>
     </g>
    </g>
   </g>
   <g id="line2d_23">
    <path d="M 107.113727 357.652364 
L 111.468595 168.048415 
L 115.823463 159.209595 
L 120.17833 151.333406 
L 124.533198 144.27071 
L 128.888066 137.901663 
L 133.242933 132.12886 
L 137.597801 126.872319 
L 141.952669 122.065749 
L 146.307536 117.653745 
L 150.662404 113.589637 
L 155.017272 109.833838 
L 159.372139 106.352547 
L 163.727007 103.116729 
L 168.081875 100.101306 
L 172.436742 97.284501 
L 176.79161 94.647318 
L 181.146478 92.173105 
L 185.501345 89.84721 
L 189.856213 87.656682 
L 194.211081 85.59004 
L 198.565948 83.637063 
L 202.920816 81.788623 
L 207.275684 80.036548 
L 211.630551 78.373491 
L 215.985419 76.792838 
L 220.340287 75.288612 
L 224.695154 73.8554 
L 229.050022 72.48829 
L 233.40489 71.182811 
L 237.759757 69.934888 
L 242.114625 68.740797 
L 246.469493 67.597128 
L 250.82436 66.500754 
L 255.179228 65.448799 
L 259.534096 64.438619 
L 263.888963 63.467773 
L 268.243831 62.534007 
L 272.598699 61.635238 
L 276.953566 60.769534 
L 281.308434 59.935103 
L 285.663301 59.130281 
L 290.018169 58.353519 
L 294.373037 57.603375 
L 298.727904 56.878503 
L 303.082772 56.177648 
L 307.43764 55.499636 
L 311.792507 78.991759 
L 316.147375 96.009904 
L 320.502243 111.671307 
L 324.85711 126.13108 
L 329.211978 139.521619 
L 333.566846 151.956607 
L 337.921713 163.534207 
L 342.276581 174.339616 
L 346.631449 184.447139 
L 350.986316 193.921867 
L 355.341184 202.821069 
L 359.696052 211.195322 
L 364.050919 219.089467 
L 368.405787 226.543391 
L 372.760655 233.592699 
L 377.115522 240.269268 
L 381.47039 246.601722 
L 385.825258 252.615838 
L 390.180125 258.334888 
L 394.534993 263.779938 
L 398.889861 268.970103 
L 403.244728 273.922765 
L 407.599596 278.653765 
L 411.954464 283.177572 
L 416.309331 287.507427 
L 420.664199 291.655468 
L 425.019067 295.632848 
L 429.373934 299.449825 
L 433.728802 303.115857 
L 438.08367 306.639673 
L 442.438537 310.029345 
L 446.793405 313.292348 
L 451.148273 316.435614 
" clip-path="url(#p27e173c250)" style="fill: none; stroke: #1f77b4; stroke-width: 3; stroke-linecap: square"/>
   </g>
   <g id="line2d_24">
    <path d="M 107.113727 355.733418 
L 111.468595 255.189262 
L 115.823463 240.571192 
L 120.17833 227.642374 
L 124.533198 216.12599 
L 128.888066 205.802572 
L 133.242933 196.495882 
L 137.597801 188.062767 
L 141.952669 180.385742 
L 146.307536 173.367488 
L 150.662404 166.926698 
L 155.017272 160.994917 
L 159.372139 155.5141 
L 163.727007 150.434703 
L 168.081875 145.714184 
L 172.436742 141.315805 
L 176.79161 137.207681 
L 181.146478 133.361996 
L 185.501345 129.754381 
L 189.856213 126.363394 
L 194.211081 123.170091 
L 198.565948 120.157674 
L 202.920816 117.311199 
L 207.275684 114.61732 
L 211.630551 112.064087 
L 215.985419 109.640767 
L 220.340287 107.337689 
L 224.695154 105.146121 
L 229.050022 103.058156 
L 233.40489 101.066616 
L 237.759757 99.164974 
L 242.114625 97.347276 
L 246.469493 95.608084 
L 250.82436 93.94242 
L 255.179228 92.345718 
L 259.534096 90.81378 
L 263.888963 89.342747 
L 268.243831 87.929055 
L 272.598699 86.569417 
L 276.953566 85.260791 
L 281.308434 84.000358 
L 285.663301 82.785504 
L 290.018169 81.613801 
L 294.373037 80.482991 
L 298.727904 79.390968 
L 303.082772 78.335772 
L 307.43764 77.315569 
L 311.792507 99.683916 
L 316.147375 115.795418 
L 320.502243 130.603727 
L 324.85711 144.260977 
L 329.211978 156.896499 
L 333.566846 168.620939 
L 337.921713 179.529518 
L 342.276581 189.704624 
L 346.631449 199.21791 
L 350.986316 208.131985 
L 355.341184 216.501798 
L 359.696052 224.375774 
L 364.050919 231.796757 
L 368.405787 238.80279 
L 372.760655 245.427768 
L 377.115522 251.701992 
L 381.47039 257.652631 
L 385.825258 263.304116 
L 390.180125 268.678479 
L 394.534993 273.795638 
L 398.889861 278.673645 
L 403.244728 283.328902 
L 407.599596 287.776342 
L 411.954464 292.029594 
L 416.309331 296.101116 
L 420.664199 300.002327 
L 425.019067 303.743703 
L 429.373934 307.334882 
L 433.728802 310.78474 
L 438.08367 314.101466 
L 442.438537 317.292629 
L 446.793405 320.365234 
L 451.148273 323.325774 
" clip-path="url(#p27e173c250)" style="fill: none; stroke-dasharray: 11.1,4.8; stroke-dashoffset: 0; stroke: #1f77b4; stroke-width: 3"/>
   </g>
   <g id="line2d_25">
    <path clip-path="url(#p27e173c250)" style="fill: none; stroke: #000000; stroke-width: 3; stroke-linecap: square"/>
   </g>
   <g id="line2d_26">
    <path clip-path="url(#p27e173c250)" style="fill: none; stroke-dasharray: 11.1,4.8; stroke-dashoffset: 0; stroke: #000000; stroke-width: 3"/>
   </g>
   <g id="patch_3">
    <path d="M 89.912 372.76 
L 89.912 40.392 
" style="fill: none; stroke: #ffffff; stroke-linejoin: miter; stroke-linecap: square"/>
   </g>
   <g id="patch_4">
    <path d="M 468.35 372.76 
L 468.35 40.392 
" style="fill: none; stroke: #ffffff; stroke-linejoin: miter; stroke-linecap: square"/>
   </g>
   <g id="patch_5">
    <path d="M 89.912 372.76 
L 468.35 372.76 
" style="fill: none; stroke: #ffffff; stroke-linejoin: miter; stroke-linecap: square"/>
   </g>
   <g id="patch_6">
    <path d="M 89.912 40.392 
L 468.35 40.392 
" style="fill: none; stroke: #ffffff; stroke-linejoin: miter; stroke-linecap: square"/>
   </g>
   <g id="text_14">
    <!-- (A) -->
    <g transform="translate(89.912 23.7736)scale(0.16 -0.16)">
     <defs>
      <path id="DejaVuSans-28" d="M 1984 4856 
Q 1566 4138 1362 3434 
Q 1159 2731 1159 2009 
Q 1159 1288 1364 580 
Q 1569 -128 1984 -844 
L 1484 -844 
Q 1016 -109 783 600 
Q 550 1309 550 2009 
Q 550 2706 781 3412 
Q 1013 4119 1484 4856 
L 1984 4856 
z
" transform="scale(0.015625)"/>
      <path id="DejaVuSans-41" d="M 2188 4044 
L 1331 1722 
L 3047 1722 
L 2188 4044 
z
M 1831 4666 
L 2547 4666 
L 4325 0 
L 3669 0 
L 3244 1197 
L 1141 1197 
L 716 0 
L 50 0 
L 1831 4666 
z
" transform="scale(0.015625)"/>
      <path id="DejaVuSans-29" d="M 513 4856 
L 1013 4856 
Q 1481 4119 1714 3412 
Q 1947 2706 1947 2009 
Q 1947 1309 1714 600 
Q 1481 -109 1013 -844 
L 513 -844 
Q 928 -128 1133 580 
Q 1338 1288 1338 2009 
Q 1338 2731 1133 3434 
Q 928 4138 513 4856 
z
" transform="scale(0.015625)"/>
     </defs>
     <use xlink:href="#DejaVuSans-28"/>
     <use xlink:href="#DejaVuSans-41" x="39.013672"/>
     <use xlink:href="#DejaVuSans-29" x="107.421875"/>
    </g>
   </g>
   <g id="legend_1">
    <g id="text_15">
     <!-- $I_{norm}$ -->
     <g transform="translate(261.771 336.283125)scale(0.16 -0.16)">
      <defs>
       <path id="DejaVuSans-Oblique-49" d="M 1081 4666 
L 1716 4666 
L 806 0 
L 172 0 
L 1081 4666 
z
" transform="scale(0.015625)"/>
      </defs>
      <use xlink:href="#DejaVuSans-Oblique-49" transform="translate(0 0.09375)"/>
      <use xlink:href="#DejaVuSans-Oblique-6e" transform="translate(29.492188 -16.3125)scale(0.7)"/>
      <use xlink:href="#DejaVuSans-Oblique-6f" transform="translate(73.857422 -16.3125)scale(0.7)"/>
      <use xlink:href="#DejaVuSans-Oblique-72" transform="translate(116.68457 -16.3125)scale(0.7)"/>
      <use xlink:href="#DejaVuSans-Oblique-6d" transform="translate(145.463867 -16.3125)scale(0.7)"/>
     </g>
    </g>
    <g id="line2d_27">
     <path d="M 243.945063 352.348438 
L 257.945063 352.348438 
L 271.945063 352.348438 
" style="fill: none; stroke: #1f77b4; stroke-width: 3; stroke-linecap: square"/>
    </g>
    <g id="text_16">
     <!-- 0.01 -->
     <g transform="translate(283.145063 357.248438)scale(0.14 -0.14)">
      <use xlink:href="#DejaVuSans-30"/>
      <use xlink:href="#DejaVuSans-2e" x="63.623047"/>
      <use xlink:href="#DejaVuSans-30" x="95.410156"/>
      <use xlink:href="#DejaVuSans-31" x="159.033203"/>
     </g>
    </g>
   </g>
   <g id="legend_2">
    <g id="line2d_28">
     <path d="M 337.17 59.712 
L 351.17 59.712 
L 365.17 59.712 
" style="fill: none; stroke: #000000; stroke-width: 3; stroke-linecap: square"/>
    </g>
    <g id="text_17">
     <!-- $\mathrm{NO_3^- → NH_4^+}$ -->
     <g transform="translate(376.37 64.612)scale(0.14 -0.14)">
      <defs>
       <path id="DejaVuSans-4e" d="M 628 4666 
L 1478 4666 
L 3547 763 
L 3547 4666 
L 4159 4666 
L 4159 0 
L 3309 0 
L 1241 3903 
L 1241 0 
L 628 0 
L 628 4666 
z
" transform="scale(0.015625)"/>
       <path id="DejaVuSans-4f" d="M 2522 4238 
Q 1834 4238 1429 3725 
Q 1025 3213 1025 2328 
Q 1025 1447 1429 934 
Q 1834 422 2522 422 
Q 3209 422 3611 934 
Q 4013 1447 4013 2328 
Q 4013 3213 3611 3725 
Q 3209 4238 2522 4238 
z
M 2522 4750 
Q 3503 4750 4090 4092 
Q 4678 3434 4678 2328 
Q 4678 1225 4090 567 
Q 3503 -91 2522 -91 
Q 1538 -91 948 565 
Q 359 1222 359 2328 
Q 359 3434 948 4092 
Q 1538 4750 2522 4750 
z
" transform="scale(0.015625)"/>
       <path id="DejaVuSans-2212" d="M 678 2272 
L 4684 2272 
L 4684 1741 
L 678 1741 
L 678 2272 
z
" transform="scale(0.015625)"/>
       <path id="DejaVuSans-33" d="M 2597 2516 
Q 3050 2419 3304 2112 
Q 3559 1806 3559 1356 
Q 3559 666 3084 287 
Q 2609 -91 1734 -91 
Q 1441 -91 1130 -33 
Q 819 25 488 141 
L 488 750 
Q 750 597 1062 519 
Q 1375 441 1716 441 
Q 2309 441 2620 675 
Q 2931 909 2931 1356 
Q 2931 1769 2642 2001 
Q 2353 2234 1838 2234 
L 1294 2234 
L 1294 2753 
L 1863 2753 
Q 2328 2753 2575 2939 
Q 2822 3125 2822 3475 
Q 2822 3834 2567 4026 
Q 2313 4219 1838 4219 
Q 1578 4219 1281 4162 
Q 984 4106 628 3988 
L 628 4550 
Q 988 4650 1302 4700 
Q 1616 4750 1894 4750 
Q 2613 4750 3031 4423 
Q 3450 4097 3450 3541 
Q 3450 3153 3228 2886 
Q 3006 2619 2597 2516 
z
" transform="scale(0.015625)"/>
       <path id="DejaVuSans-2192" d="M 5050 2147 
L 5050 1866 
L 3822 638 
L 3447 1013 
L 4175 1741 
L 366 1741 
L 366 2272 
L 4175 2272 
L 3447 3000 
L 3822 3375 
L 5050 2147 
z
" transform="scale(0.015625)"/>
       <path id="DejaVuSans-48" d="M 628 4666 
L 1259 4666 
L 1259 2753 
L 3553 2753 
L 3553 4666 
L 4184 4666 
L 4184 0 
L 3553 0 
L 3553 2222 
L 1259 2222 
L 1259 0 
L 628 0 
L 628 4666 
z
" transform="scale(0.015625)"/>
       <path id="DejaVuSans-2b" d="M 2944 4013 
L 2944 2272 
L 4684 2272 
L 4684 1741 
L 2944 1741 
L 2944 0 
L 2419 0 
L 2419 1741 
L 678 1741 
L 678 2272 
L 2419 2272 
L 2419 4013 
L 2944 4013 
z
" transform="scale(0.015625)"/>
      </defs>
      <use xlink:href="#DejaVuSans-4e" transform="translate(0 0.826562)"/>
      <use xlink:href="#DejaVuSans-4f" transform="translate(74.804688 0.826562)"/>
      <use xlink:href="#DejaVuSans-2212" transform="translate(168.110352 39.107812)scale(0.7)"/>
      <use xlink:href="#DejaVuSans-33" transform="translate(154.472656 -26.517188)scale(0.7)"/>
      <use xlink:href="#DejaVuSans-2192" transform="translate(243.134766 0.826562)"/>
      <use xlink:href="#DejaVuSans-4e" transform="translate(326.923828 0.826562)"/>
      <use xlink:href="#DejaVuSans-48" transform="translate(401.728516 0.826562)"/>
      <use xlink:href="#DejaVuSans-2b" transform="translate(491.518555 39.107813)scale(0.7)"/>
      <use xlink:href="#DejaVuSans-34" transform="translate(477.880859 -26.517188)scale(0.7)"/>
     </g>
    </g>
    <g id="line2d_29">
     <path d="M 337.17 81.409813 
L 351.17 81.409813 
L 365.17 81.409813 
" style="fill: none; stroke-dasharray: 11.1,4.8; stroke-dashoffset: 0; stroke: #000000; stroke-width: 3"/>
    </g>
    <g id="text_18">
     <!-- $\mathrm{NO_3^- → N_2}$ -->
     <g transform="translate(376.37 86.309813)scale(0.14 -0.14)">
      <use xlink:href="#DejaVuSans-4e" transform="translate(0 0.78125)"/>
      <use xlink:href="#DejaVuSans-4f" transform="translate(74.804688 0.78125)"/>
      <use xlink:href="#DejaVuSans-2212" transform="translate(168.110352 39.0625)scale(0.7)"/>
      <use xlink:href="#DejaVuSans-33" transform="translate(154.472656 -26.5625)scale(0.7)"/>
      <use xlink:href="#DejaVuSans-2192" transform="translate(243.134766 0.78125)"/>
      <use xlink:href="#DejaVuSans-4e" transform="translate(326.923828 0.78125)"/>
      <use xlink:href="#DejaVuSans-32" transform="translate(402.685547 -15.625)scale(0.7)"/>
     </g>
    </g>
   </g>
  </g>
  <g id="axes_2">
   <g id="patch_7">
    <path d="M 538.786 372.76 
L 917.224 372.76 
L 917.224 40.392 
L 538.786 40.392 
z
" style="fill: #e5e5e5"/>
   </g>
   <g id="matplotlib.axis_3">
    <g id="xtick_6">
     <g id="line2d_30">
      <path d="M 553.810293 372.76 
L 553.810293 40.392 
" clip-path="url(#p81d47fd011)" style="fill: none; stroke: #ffffff; stroke-width: 0.8; stroke-linecap: square"/>
     </g>
     <g id="line2d_31">
      <g>
       <use xlink:href="#m2042f8e102" x="553.810293" y="372.76" style="fill: #555555; stroke: #555555; stroke-width: 0.8"/>
      </g>
     </g>
     <g id="text_19">
      <!-- 0 -->
      <g style="fill: #555555" transform="translate(548.720293 391.9175)scale(0.16 -0.16)">
       <use xlink:href="#DejaVuSans-30"/>
      </g>
     </g>
    </g>
    <g id="xtick_7">
     <g id="line2d_32">
      <path d="M 640.907647 372.76 
L 640.907647 40.392 
" clip-path="url(#p81d47fd011)" style="fill: none; stroke: #ffffff; stroke-width: 0.8; stroke-linecap: square"/>
     </g>
     <g id="line2d_33">
      <g>
       <use xlink:href="#m2042f8e102" x="640.907647" y="372.76" style="fill: #555555; stroke: #555555; stroke-width: 0.8"/>
      </g>
     </g>
     <g id="text_20">
      <!-- 2 -->
      <g style="fill: #555555" transform="translate(635.817647 391.9175)scale(0.16 -0.16)">
       <use xlink:href="#DejaVuSans-32"/>
      </g>
     </g>
    </g>
    <g id="xtick_8">
     <g id="line2d_34">
      <path d="M 728.005 372.76 
L 728.005 40.392 
" clip-path="url(#p81d47fd011)" style="fill: none; stroke: #ffffff; stroke-width: 0.8; stroke-linecap: square"/>
     </g>
     <g id="line2d_35">
      <g>
       <use xlink:href="#m2042f8e102" x="728.005" y="372.76" style="fill: #555555; stroke: #555555; stroke-width: 0.8"/>
      </g>
     </g>
     <g id="text_21">
      <!-- 4 -->
      <g style="fill: #555555" transform="translate(722.915 391.9175)scale(0.16 -0.16)">
       <use xlink:href="#DejaVuSans-34"/>
      </g>
     </g>
    </g>
    <g id="xtick_9">
     <g id="line2d_36">
      <path d="M 815.102353 372.76 
L 815.102353 40.392 
" clip-path="url(#p81d47fd011)" style="fill: none; stroke: #ffffff; stroke-width: 0.8; stroke-linecap: square"/>
     </g>
     <g id="line2d_37">
      <g>
       <use xlink:href="#m2042f8e102" x="815.102353" y="372.76" style="fill: #555555; stroke: #555555; stroke-width: 0.8"/>
      </g>
     </g>
     <g id="text_22">
      <!-- 6 -->
      <g style="fill: #555555" transform="translate(810.012353 391.9175)scale(0.16 -0.16)">
       <use xlink:href="#DejaVuSans-36"/>
      </g>
     </g>
    </g>
    <g id="xtick_10">
     <g id="line2d_38">
      <path d="M 902.199707 372.76 
L 902.199707 40.392 
" clip-path="url(#p81d47fd011)" style="fill: none; stroke: #ffffff; stroke-width: 0.8; stroke-linecap: square"/>
     </g>
     <g id="line2d_39">
      <g>
       <use xlink:href="#m2042f8e102" x="902.199707" y="372.76" style="fill: #555555; stroke: #555555; stroke-width: 0.8"/>
      </g>
     </g>
     <g id="text_23">
      <!-- 8 -->
      <g style="fill: #555555" transform="translate(897.109707 391.9175)scale(0.16 -0.16)">
       <use xlink:href="#DejaVuSans-38"/>
      </g>
     </g>
    </g>
    <g id="text_24">
     <!-- ${\gamma_{ED}}$ -->
     <g style="fill: #555555" transform="translate(710.295 415.916875)scale(0.22 -0.22)">
      <use xlink:href="#DejaVuSans-Oblique-3b3" transform="translate(0 0.3125)"/>
      <use xlink:href="#DejaVuSans-Oblique-45" transform="translate(59.179688 -16.09375)scale(0.7)"/>
      <use xlink:href="#DejaVuSans-Oblique-44" transform="translate(103.408203 -16.09375)scale(0.7)"/>
     </g>
    </g>
   </g>
   <g id="matplotlib.axis_4">
    <g id="ytick_7">
     <g id="line2d_40">
      <path d="M 538.786 359.904387 
L 917.224 359.904387 
" clip-path="url(#p81d47fd011)" style="fill: none; stroke: #ffffff; stroke-width: 0.8; stroke-linecap: square"/>
     </g>
     <g id="line2d_41">
      <g>
       <use xlink:href="#m56472a580f" x="538.786" y="359.904387" style="fill: #555555; stroke: #555555; stroke-width: 0.8"/>
      </g>
     </g>
     <g id="text_25">
      <!-- 0.0 -->
      <g style="fill: #555555" transform="translate(506.341 365.983137)scale(0.16 -0.16)">
       <use xlink:href="#DejaVuSans-30"/>
       <use xlink:href="#DejaVuSans-2e" x="63.623047"/>
       <use xlink:href="#DejaVuSans-30" x="95.410156"/>
      </g>
     </g>
    </g>
    <g id="ytick_8">
     <g id="line2d_42">
      <path d="M 538.786 304.65263 
L 917.224 304.65263 
" clip-path="url(#p81d47fd011)" style="fill: none; stroke: #ffffff; stroke-width: 0.8; stroke-linecap: square"/>
     </g>
     <g id="line2d_43">
      <g>
       <use xlink:href="#m56472a580f" x="538.786" y="304.65263" style="fill: #555555; stroke: #555555; stroke-width: 0.8"/>
      </g>
     </g>
     <g id="text_26">
      <!-- 0.1 -->
      <g style="fill: #555555" transform="translate(506.341 310.73138)scale(0.16 -0.16)">
       <use xlink:href="#DejaVuSans-30"/>
       <use xlink:href="#DejaVuSans-2e" x="63.623047"/>
       <use xlink:href="#DejaVuSans-31" x="95.410156"/>
      </g>
     </g>
    </g>
    <g id="ytick_9">
     <g id="line2d_44">
      <path d="M 538.786 249.400874 
L 917.224 249.400874 
" clip-path="url(#p81d47fd011)" style="fill: none; stroke: #ffffff; stroke-width: 0.8; stroke-linecap: square"/>
     </g>
     <g id="line2d_45">
      <g>
       <use xlink:href="#m56472a580f" x="538.786" y="249.400874" style="fill: #555555; stroke: #555555; stroke-width: 0.8"/>
      </g>
     </g>
     <g id="text_27">
      <!-- 0.2 -->
      <g style="fill: #555555" transform="translate(506.341 255.479624)scale(0.16 -0.16)">
       <use xlink:href="#DejaVuSans-30"/>
       <use xlink:href="#DejaVuSans-2e" x="63.623047"/>
       <use xlink:href="#DejaVuSans-32" x="95.410156"/>
      </g>
     </g>
    </g>
    <g id="ytick_10">
     <g id="line2d_46">
      <path d="M 538.786 194.149118 
L 917.224 194.149118 
" clip-path="url(#p81d47fd011)" style="fill: none; stroke: #ffffff; stroke-width: 0.8; stroke-linecap: square"/>
     </g>
     <g id="line2d_47">
      <g>
       <use xlink:href="#m56472a580f" x="538.786" y="194.149118" style="fill: #555555; stroke: #555555; stroke-width: 0.8"/>
      </g>
     </g>
     <g id="text_28">
      <!-- 0.3 -->
      <g style="fill: #555555" transform="translate(506.341 200.227868)scale(0.16 -0.16)">
       <use xlink:href="#DejaVuSans-30"/>
       <use xlink:href="#DejaVuSans-2e" x="63.623047"/>
       <use xlink:href="#DejaVuSans-33" x="95.410156"/>
      </g>
     </g>
    </g>
    <g id="ytick_11">
     <g id="line2d_48">
      <path d="M 538.786 138.897362 
L 917.224 138.897362 
" clip-path="url(#p81d47fd011)" style="fill: none; stroke: #ffffff; stroke-width: 0.8; stroke-linecap: square"/>
     </g>
     <g id="line2d_49">
      <g>
       <use xlink:href="#m56472a580f" x="538.786" y="138.897362" style="fill: #555555; stroke: #555555; stroke-width: 0.8"/>
      </g>
     </g>
     <g id="text_29">
      <!-- 0.4 -->
      <g style="fill: #555555" transform="translate(506.341 144.976112)scale(0.16 -0.16)">
       <use xlink:href="#DejaVuSans-30"/>
       <use xlink:href="#DejaVuSans-2e" x="63.623047"/>
       <use xlink:href="#DejaVuSans-34" x="95.410156"/>
      </g>
     </g>
    </g>
    <g id="ytick_12">
     <g id="line2d_50">
      <path d="M 538.786 83.645605 
L 917.224 83.645605 
" clip-path="url(#p81d47fd011)" style="fill: none; stroke: #ffffff; stroke-width: 0.8; stroke-linecap: square"/>
     </g>
     <g id="line2d_51">
      <g>
       <use xlink:href="#m56472a580f" x="538.786" y="83.645605" style="fill: #555555; stroke: #555555; stroke-width: 0.8"/>
      </g>
     </g>
     <g id="text_30">
      <!-- 0.5 -->
      <g style="fill: #555555" transform="translate(506.341 89.724355)scale(0.16 -0.16)">
       <defs>
        <path id="DejaVuSans-35" d="M 691 4666 
L 3169 4666 
L 3169 4134 
L 1269 4134 
L 1269 2991 
Q 1406 3038 1543 3061 
Q 1681 3084 1819 3084 
Q 2600 3084 3056 2656 
Q 3513 2228 3513 1497 
Q 3513 744 3044 326 
Q 2575 -91 1722 -91 
Q 1428 -91 1123 -41 
Q 819 9 494 109 
L 494 744 
Q 775 591 1075 516 
Q 1375 441 1709 441 
Q 2250 441 2565 725 
Q 2881 1009 2881 1497 
Q 2881 1984 2565 2268 
Q 2250 2553 1709 2553 
Q 1456 2553 1204 2497 
Q 953 2441 691 2322 
L 691 4666 
z
" transform="scale(0.015625)"/>
       </defs>
       <use xlink:href="#DejaVuSans-30"/>
       <use xlink:href="#DejaVuSans-2e" x="63.623047"/>
       <use xlink:href="#DejaVuSans-35" x="95.410156"/>
      </g>
     </g>
    </g>
    <g id="text_31">
     <!-- $G_{C, norm}$ -->
     <g style="fill: #555555" transform="translate(496.841 245.076)rotate(-90)scale(0.22 -0.22)">
      <defs>
       <path id="DejaVuSans-Oblique-43" d="M 4447 4306 
L 4319 3641 
Q 4019 3944 3683 4091 
Q 3347 4238 2956 4238 
Q 2422 4238 2017 3981 
Q 1613 3725 1319 3200 
Q 1131 2863 1032 2486 
Q 934 2109 934 1728 
Q 934 1091 1264 756 
Q 1594 422 2222 422 
Q 2656 422 3056 561 
Q 3456 700 3834 978 
L 3688 231 
Q 3316 72 2936 -9 
Q 2556 -91 2175 -91 
Q 1278 -91 773 396 
Q 269 884 269 1753 
Q 269 2309 461 2846 
Q 653 3384 1013 3828 
Q 1394 4300 1883 4525 
Q 2372 4750 3022 4750 
Q 3422 4750 3780 4639 
Q 4138 4528 4447 4306 
z
" transform="scale(0.015625)"/>
       <path id="DejaVuSans-2c" d="M 750 794 
L 1409 794 
L 1409 256 
L 897 -744 
L 494 -744 
L 750 256 
L 750 794 
z
" transform="scale(0.015625)"/>
      </defs>
      <use xlink:href="#DejaVuSans-Oblique-47" transform="translate(0 0.78125)"/>
      <use xlink:href="#DejaVuSans-Oblique-43" transform="translate(77.490234 -15.625)scale(0.7)"/>
      <use xlink:href="#DejaVuSans-2c" transform="translate(126.367188 -15.625)scale(0.7)"/>
      <use xlink:href="#DejaVuSans-Oblique-6e" transform="translate(162.255859 -15.625)scale(0.7)"/>
      <use xlink:href="#DejaVuSans-Oblique-6f" transform="translate(206.621094 -15.625)scale(0.7)"/>
      <use xlink:href="#DejaVuSans-Oblique-72" transform="translate(249.448242 -15.625)scale(0.7)"/>
      <use xlink:href="#DejaVuSans-Oblique-6d" transform="translate(278.227539 -15.625)scale(0.7)"/>
     </g>
    </g>
   </g>
   <g id="line2d_52">
    <path d="M 555.987727 357.652364 
L 560.342595 353.004394 
L 564.697463 348.19655 
L 569.05233 343.258842 
L 573.407198 338.214212 
L 577.762066 333.080499 
L 582.116933 327.871784 
L 586.471801 322.599325 
L 590.826669 317.272238 
L 595.181536 311.897979 
L 599.536404 306.482705 
L 603.891272 301.031546 
L 608.246139 295.548813 
L 612.601007 290.038151 
L 616.955875 284.502666 
L 621.310742 278.945018 
L 625.66561 273.367503 
L 630.020478 267.772107 
L 634.375345 262.160563 
L 638.730213 256.534385 
L 643.085081 250.894904 
L 647.439948 245.243295 
L 651.794816 239.580598 
L 656.149684 233.907737 
L 660.504551 228.225537 
L 664.859419 222.534736 
L 669.214287 216.835994 
L 673.569154 211.129909 
L 677.924022 205.417018 
L 682.27889 199.697807 
L 686.633757 193.972717 
L 690.988625 188.24215 
L 695.343493 182.50647 
L 699.69836 176.766011 
L 704.053228 171.021078 
L 708.408096 165.271952 
L 712.762963 159.518888 
L 717.117831 153.762124 
L 721.472699 148.001876 
L 725.827566 142.238347 
L 730.182434 136.471721 
L 734.537301 130.702171 
L 738.892169 124.929857 
L 743.247037 119.154926 
L 747.601904 113.377516 
L 751.956772 107.597757 
L 756.31164 101.815766 
L 760.666507 104.839523 
L 765.021375 106.075823 
L 769.376243 107.258888 
L 773.73111 108.392082 
L 778.085978 109.478495 
L 782.440846 110.520964 
L 786.795713 111.522104 
L 791.150581 112.484323 
L 795.505449 113.409849 
L 799.860316 114.30074 
L 804.215184 115.158906 
L 808.570052 115.986117 
L 812.924919 116.784018 
L 817.279787 117.55414 
L 821.634655 118.297909 
L 825.989522 119.016654 
L 830.34439 119.711618 
L 834.699258 120.383962 
L 839.054125 121.034772 
L 843.408993 121.665066 
L 847.763861 122.275801 
L 852.118728 122.867871 
L 856.473596 123.442121 
L 860.828464 123.999342 
L 865.183331 124.540281 
L 869.538199 125.065641 
L 873.893067 125.576086 
L 878.247934 126.072242 
L 882.602802 126.554701 
L 886.95767 127.024022 
L 891.312537 127.480734 
L 895.667405 127.92534 
L 900.022273 128.358314 
" clip-path="url(#p81d47fd011)" style="fill: none; stroke: #000000; stroke-opacity: 0.3; stroke-width: 3; stroke-linecap: square"/>
   </g>
   <g id="line2d_53">
    <path d="M 555.987727 357.617886 
L 560.342595 352.728552 
L 564.697463 347.507815 
L 569.05233 342.034158 
L 573.407198 336.363096 
L 577.762066 330.535003 
L 582.116933 324.579948 
L 586.471801 318.520782 
L 590.826669 312.375183 
L 595.181536 306.157041 
L 599.536404 299.877422 
L 603.891272 293.545248 
L 608.246139 287.167798 
L 612.601007 280.751062 
L 616.955875 274.30002 
L 621.310742 267.818845 
L 625.66561 261.311058 
L 630.020478 254.779654 
L 634.375345 248.227192 
L 638.730213 241.655877 
L 643.085081 235.067615 
L 647.439948 228.464064 
L 651.794816 221.846671 
L 656.149684 215.21671 
L 660.504551 208.575298 
L 664.859419 201.923427 
L 669.214287 195.261978 
L 673.569154 188.591733 
L 677.924022 181.913392 
L 682.27889 175.227585 
L 686.633757 168.534876 
L 690.988625 161.835773 
L 695.343493 155.130738 
L 699.69836 148.420187 
L 704.053228 141.7045 
L 708.408096 134.984021 
L 712.762963 128.259064 
L 717.117831 121.529919 
L 721.472699 114.796848 
L 725.827566 108.060094 
L 730.182434 101.319878 
L 734.537301 94.576407 
L 738.892169 87.829868 
L 743.247037 81.080437 
L 747.601904 74.328276 
L 751.956772 67.573533 
L 756.31164 60.816349 
L 760.666507 62.053343 
L 765.021375 61.738589 
L 769.376243 61.434551 
L 773.73111 61.140692 
L 778.085978 60.856508 
L 782.440846 60.581529 
L 786.795713 60.315316 
L 791.150581 60.057455 
L 795.505449 59.80756 
L 799.860316 59.565267 
L 804.215184 59.330235 
L 808.570052 59.102141 
L 812.924919 58.880683 
L 817.279787 58.665577 
L 821.634655 58.456551 
L 825.989522 58.253353 
L 830.34439 58.055741 
L 834.699258 57.863488 
L 839.054125 57.67638 
L 843.408993 57.494213 
L 847.763861 57.316793 
L 852.118728 57.143937 
L 856.473596 56.975472 
L 860.828464 56.811232 
L 865.183331 56.65106 
L 869.538199 56.494807 
L 873.893067 56.342331 
L 878.247934 56.193496 
L 882.602802 56.048174 
L 886.95767 55.906241 
L 891.312537 55.767581 
L 895.667405 55.632082 
L 900.022273 55.499636 
" clip-path="url(#p81d47fd011)" style="fill: none; stroke-dasharray: 11.1,4.8; stroke-dashoffset: 0; stroke: #000000; stroke-opacity: 0.3; stroke-width: 3"/>
   </g>
   <g id="patch_8">
    <path d="M 538.786 372.76 
L 538.786 40.392 
" style="fill: none; stroke: #ffffff; stroke-linejoin: miter; stroke-linecap: square"/>
   </g>
   <g id="patch_9">
    <path d="M 917.224 372.76 
L 917.224 40.392 
" style="fill: none; stroke: #ffffff; stroke-linejoin: miter; stroke-linecap: square"/>
   </g>
   <g id="patch_10">
    <path d="M 538.786 372.76 
L 917.224 372.76 
" style="fill: none; stroke: #ffffff; stroke-linejoin: miter; stroke-linecap: square"/>
   </g>
   <g id="patch_11">
    <path d="M 538.786 40.392 
L 917.224 40.392 
" style="fill: none; stroke: #ffffff; stroke-linejoin: miter; stroke-linecap: square"/>
   </g>
   <g id="text_32">
    <!-- (B) -->
    <g transform="translate(538.786 23.7736)scale(0.16 -0.16)">
     <defs>
      <path id="DejaVuSans-42" d="M 1259 2228 
L 1259 519 
L 2272 519 
Q 2781 519 3026 730 
Q 3272 941 3272 1375 
Q 3272 1813 3026 2020 
Q 2781 2228 2272 2228 
L 1259 2228 
z
M 1259 4147 
L 1259 2741 
L 2194 2741 
Q 2656 2741 2882 2914 
Q 3109 3088 3109 3444 
Q 3109 3797 2882 3972 
Q 2656 4147 2194 4147 
L 1259 4147 
z
M 628 4666 
L 2241 4666 
Q 2963 4666 3353 4366 
Q 3744 4066 3744 3513 
Q 3744 3084 3544 2831 
Q 3344 2578 2956 2516 
Q 3422 2416 3680 2098 
Q 3938 1781 3938 1306 
Q 3938 681 3513 340 
Q 3088 0 2303 0 
L 628 0 
L 628 4666 
z
" transform="scale(0.015625)"/>
     </defs>
     <use xlink:href="#DejaVuSans-28"/>
     <use xlink:href="#DejaVuSans-42" x="39.013672"/>
     <use xlink:href="#DejaVuSans-29" x="107.617188"/>
    </g>
   </g>
  </g>
  <g id="axes_3">
   <g id="matplotlib.axis_5">
    <g id="ytick_13">
     <g id="line2d_54">
      <path d="M 538.786 329.627154 
L 917.224 329.627154 
" clip-path="url(#p81d47fd011)" style="fill: none; stroke: #ffffff; stroke-width: 0.8; stroke-linecap: square"/>
     </g>
     <g id="line2d_55">
      <defs>
       <path id="m285593a9dc" d="M 0 0 
L 3.5 0 
" style="stroke: #555555; stroke-width: 0.8"/>
      </defs>
      <g>
       <use xlink:href="#m285593a9dc" x="917.224" y="329.627154" style="fill: #555555; stroke: #555555; stroke-width: 0.8"/>
      </g>
     </g>
     <g id="text_33">
      <!-- 0.006 -->
      <g style="fill: #1f77b4" transform="translate(924.224 335.705904)scale(0.16 -0.16)">
       <use xlink:href="#DejaVuSans-30"/>
       <use xlink:href="#DejaVuSans-2e" x="63.623047"/>
       <use xlink:href="#DejaVuSans-30" x="95.410156"/>
       <use xlink:href="#DejaVuSans-30" x="159.033203"/>
       <use xlink:href="#DejaVuSans-36" x="222.65625"/>
      </g>
     </g>
    </g>
    <g id="ytick_14">
     <g id="line2d_56">
      <path d="M 538.786 260.241565 
L 917.224 260.241565 
" clip-path="url(#p81d47fd011)" style="fill: none; stroke: #ffffff; stroke-width: 0.8; stroke-linecap: square"/>
     </g>
     <g id="line2d_57">
      <g>
       <use xlink:href="#m285593a9dc" x="917.224" y="260.241565" style="fill: #555555; stroke: #555555; stroke-width: 0.8"/>
      </g>
     </g>
     <g id="text_34">
      <!-- 0.008 -->
      <g style="fill: #1f77b4" transform="translate(924.224 266.320315)scale(0.16 -0.16)">
       <use xlink:href="#DejaVuSans-30"/>
       <use xlink:href="#DejaVuSans-2e" x="63.623047"/>
       <use xlink:href="#DejaVuSans-30" x="95.410156"/>
       <use xlink:href="#DejaVuSans-30" x="159.033203"/>
       <use xlink:href="#DejaVuSans-38" x="222.65625"/>
      </g>
     </g>
    </g>
    <g id="ytick_15">
     <g id="line2d_58">
      <path d="M 538.786 190.855976 
L 917.224 190.855976 
" clip-path="url(#p81d47fd011)" style="fill: none; stroke: #ffffff; stroke-width: 0.8; stroke-linecap: square"/>
     </g>
     <g id="line2d_59">
      <g>
       <use xlink:href="#m285593a9dc" x="917.224" y="190.855976" style="fill: #555555; stroke: #555555; stroke-width: 0.8"/>
      </g>
     </g>
     <g id="text_35">
      <!-- 0.010 -->
      <g style="fill: #1f77b4" transform="translate(924.224 196.934726)scale(0.16 -0.16)">
       <use xlink:href="#DejaVuSans-30"/>
       <use xlink:href="#DejaVuSans-2e" x="63.623047"/>
       <use xlink:href="#DejaVuSans-30" x="95.410156"/>
       <use xlink:href="#DejaVuSans-31" x="159.033203"/>
       <use xlink:href="#DejaVuSans-30" x="222.65625"/>
      </g>
     </g>
    </g>
    <g id="ytick_16">
     <g id="line2d_60">
      <path d="M 538.786 121.470387 
L 917.224 121.470387 
" clip-path="url(#p81d47fd011)" style="fill: none; stroke: #ffffff; stroke-width: 0.8; stroke-linecap: square"/>
     </g>
     <g id="line2d_61">
      <g>
       <use xlink:href="#m285593a9dc" x="917.224" y="121.470387" style="fill: #555555; stroke: #555555; stroke-width: 0.8"/>
      </g>
     </g>
     <g id="text_36">
      <!-- 0.012 -->
      <g style="fill: #1f77b4" transform="translate(924.224 127.549137)scale(0.16 -0.16)">
       <use xlink:href="#DejaVuSans-30"/>
       <use xlink:href="#DejaVuSans-2e" x="63.623047"/>
       <use xlink:href="#DejaVuSans-30" x="95.410156"/>
       <use xlink:href="#DejaVuSans-31" x="159.033203"/>
       <use xlink:href="#DejaVuSans-32" x="222.65625"/>
      </g>
     </g>
    </g>
    <g id="ytick_17">
     <g id="line2d_62">
      <path d="M 538.786 52.084798 
L 917.224 52.084798 
" clip-path="url(#p81d47fd011)" style="fill: none; stroke: #ffffff; stroke-width: 0.8; stroke-linecap: square"/>
     </g>
     <g id="line2d_63">
      <g>
       <use xlink:href="#m285593a9dc" x="917.224" y="52.084798" style="fill: #555555; stroke: #555555; stroke-width: 0.8"/>
      </g>
     </g>
     <g id="text_37">
      <!-- 0.014 -->
      <g style="fill: #1f77b4" transform="translate(924.224 58.163548)scale(0.16 -0.16)">
       <use xlink:href="#DejaVuSans-30"/>
       <use xlink:href="#DejaVuSans-2e" x="63.623047"/>
       <use xlink:href="#DejaVuSans-30" x="95.410156"/>
       <use xlink:href="#DejaVuSans-31" x="159.033203"/>
       <use xlink:href="#DejaVuSans-34" x="222.65625"/>
      </g>
     </g>
    </g>
    <g id="text_38">
     <!-- $G_{N, norm}$ -->
     <g style="fill: #1f77b4" transform="translate(990.529 245.406)rotate(-90)scale(0.22 -0.22)">
      <defs>
       <path id="DejaVuSans-Oblique-4e" d="M 1081 4666 
L 1931 4666 
L 3219 666 
L 4000 4666 
L 4616 4666 
L 3706 0 
L 2853 0 
L 1569 4025 
L 788 0 
L 172 0 
L 1081 4666 
z
" transform="scale(0.015625)"/>
      </defs>
      <use xlink:href="#DejaVuSans-Oblique-47" transform="translate(0 0.78125)"/>
      <use xlink:href="#DejaVuSans-Oblique-4e" transform="translate(77.490234 -15.625)scale(0.7)"/>
      <use xlink:href="#DejaVuSans-2c" transform="translate(129.853516 -15.625)scale(0.7)"/>
      <use xlink:href="#DejaVuSans-Oblique-6e" transform="translate(165.742188 -15.625)scale(0.7)"/>
      <use xlink:href="#DejaVuSans-Oblique-6f" transform="translate(210.107422 -15.625)scale(0.7)"/>
      <use xlink:href="#DejaVuSans-Oblique-72" transform="translate(252.93457 -15.625)scale(0.7)"/>
      <use xlink:href="#DejaVuSans-Oblique-6d" transform="translate(281.713867 -15.625)scale(0.7)"/>
     </g>
    </g>
   </g>
   <g id="line2d_64">
    <path d="M 555.987727 193.743238 
L 560.342595 182.473503 
L 564.697463 172.501834 
L 569.05233 163.616174 
L 573.407198 155.648271 
L 577.762066 148.462919 
L 582.116933 141.950232 
L 586.471801 136.019973 
L 590.826669 130.597357 
L 595.181536 125.619878 
L 599.536404 121.034884 
L 603.891272 116.797713 
L 608.246139 112.870234 
L 612.601007 109.21969 
L 616.955875 105.817787 
L 621.310742 102.63996 
L 625.66561 99.664776 
L 630.020478 96.87345 
L 634.375345 94.24945 
L 638.730213 91.778169 
L 643.085081 89.44665 
L 647.439948 87.243364 
L 651.794816 85.158015 
L 656.149684 83.181381 
L 660.504551 81.305175 
L 664.859419 79.521933 
L 669.214287 77.824914 
L 673.569154 76.208011 
L 677.924022 74.665682 
L 682.27889 73.192883 
L 686.633757 71.785018 
L 690.988625 70.437883 
L 695.343493 69.147633 
L 699.69836 67.910739 
L 704.053228 66.723958 
L 708.408096 65.584305 
L 712.762963 64.489028 
L 717.117831 63.435585 
L 721.472699 62.421623 
L 725.827566 61.444963 
L 730.182434 60.503585 
L 734.537301 59.595611 
L 738.892169 58.719293 
L 743.247037 57.873005 
L 747.601904 57.055229 
L 751.956772 56.264548 
L 756.31164 55.499636 
L 760.666507 82.002684 
L 765.021375 101.202001 
L 769.376243 118.870686 
L 773.73111 135.183731 
L 778.085978 150.290501 
L 782.440846 164.31925 
L 786.795713 177.380721 
L 791.150581 189.571032 
L 795.505449 200.974009 
L 799.860316 211.66309 
L 804.215184 221.702879 
L 808.570052 231.150439 
L 812.924919 240.056356 
L 817.279787 248.465631 
L 821.634655 256.418431 
L 825.989522 263.950718 
L 830.34439 271.094786 
L 834.699258 277.879716 
L 839.054125 284.331762 
L 843.408993 290.474691 
L 847.763861 296.330066 
L 852.118728 301.917497 
L 856.473596 307.254857 
L 860.828464 312.358469 
L 865.183331 317.24327 
L 869.538199 321.922956 
L 873.893067 326.410106 
L 878.247934 330.716295 
L 882.602802 334.852193 
L 886.95767 338.827647 
L 891.312537 342.651765 
L 895.667405 346.332979 
L 900.022273 349.879109 
" clip-path="url(#p81d47fd011)" style="fill: none; stroke: #1f77b4; stroke-width: 3; stroke-linecap: square"/>
   </g>
   <g id="line2d_65">
    <path d="M 555.987727 299.579971 
L 560.342595 280.78297 
L 564.697463 264.291338 
L 569.05233 249.705467 
L 573.407198 236.713058 
L 577.762066 225.066514 
L 582.116933 214.567009 
L 586.471801 205.053043 
L 590.826669 196.392074 
L 595.181536 188.474308 
L 599.536404 181.208018 
L 603.891272 174.515977 
L 608.246139 168.332698 
L 612.601007 162.602287 
L 616.955875 157.276751 
L 621.310742 152.314644 
L 625.66561 147.679991 
L 630.020478 143.341415 
L 634.375345 139.271422 
L 638.730213 135.44582 
L 643.085081 131.843239 
L 647.439948 128.444729 
L 651.794816 125.233428 
L 656.149684 122.194282 
L 660.504551 119.313808 
L 664.859419 116.579897 
L 669.214287 113.981639 
L 673.569154 111.509183 
L 677.924022 109.153609 
L 682.27889 106.906819 
L 686.633757 104.761448 
L 690.988625 102.710781 
L 695.343493 100.748681 
L 699.69836 98.869533 
L 704.053228 97.068185 
L 708.408096 95.339904 
L 712.762963 93.680331 
L 717.117831 92.085451 
L 721.472699 90.551551 
L 725.827566 89.075202 
L 730.182434 87.653222 
L 734.537301 86.282664 
L 738.892169 84.960787 
L 743.247037 83.685043 
L 747.601904 82.453059 
L 751.956772 81.262621 
L 756.31164 80.111661 
L 760.666507 105.346902 
L 765.021375 123.523374 
L 769.376243 140.229626 
L 773.73111 155.63729 
L 778.085978 169.892274 
L 782.440846 183.119407 
L 786.795713 195.42611 
L 791.150581 206.905333 
L 795.505449 217.637913 
L 799.860316 227.694482 
L 804.215184 237.137032 
L 808.570052 246.020196 
L 812.924919 254.392307 
L 817.279787 262.296285 
L 821.634655 269.77037 
L 825.989522 276.848745 
L 830.34439 283.562062 
L 834.699258 289.937884 
L 839.054125 296.001065 
L 843.408993 301.774076 
L 847.763861 307.277285 
L 852.118728 312.529194 
L 856.473596 317.546652 
L 860.828464 322.345032 
L 865.183331 326.938391 
L 869.538199 331.339609 
L 873.893067 335.560509 
L 878.247934 339.61196 
L 882.602802 343.503977 
L 886.95767 347.245799 
L 891.312537 350.845965 
L 895.667405 354.312378 
L 900.022273 357.652364 
" clip-path="url(#p81d47fd011)" style="fill: none; stroke-dasharray: 11.1,4.8; stroke-dashoffset: 0; stroke: #1f77b4; stroke-width: 3"/>
   </g>
   <g id="patch_12">
    <path d="M 538.786 372.76 
L 538.786 40.392 
" style="fill: none; stroke: #ffffff; stroke-linejoin: miter; stroke-linecap: square"/>
   </g>
   <g id="patch_13">
    <path d="M 917.224 372.76 
L 917.224 40.392 
" style="fill: none; stroke: #ffffff; stroke-linejoin: miter; stroke-linecap: square"/>
   </g>
   <g id="patch_14">
    <path d="M 538.786 372.76 
L 917.224 372.76 
" style="fill: none; stroke: #ffffff; stroke-linejoin: miter; stroke-linecap: square"/>
   </g>
   <g id="patch_15">
    <path d="M 538.786 40.392 
L 917.224 40.392 
" style="fill: none; stroke: #ffffff; stroke-linejoin: miter; stroke-linecap: square"/>
   </g>
  </g>
 </g>
 <defs>
  <clipPath id="p27e173c250">
   <rect x="89.912" y="40.392" width="378.438" height="332.368"/>
  </clipPath>
  <clipPath id="p81d47fd011">
   <rect x="538.786" y="40.392" width="378.438" height="332.368"/>
  </clipPath>
 </defs>
</svg>
